/* XPM */
static char * appicon_xpm[] = {
"32 32 4 1",
" 	c #FFFFFF",
".	c #BDBDBD",
"+	c #7B7B7B",
"@	c #000000",
"              ...............   ",
"              ................  ",
"             .......+++++...... ",
"            ......+++++++.......",
"            .....+++++@@+++.....",
"             ....++@@@@@@+++....",
"            .....++@@@@@@@++....",
"            ....+++@@@@@@@@++...",
"            ....++@@@@@@@@@++...",
"           .....+++@@@@@@@++....",
"          ......+++@@@@@@@+++...",
"    .   .........+++@@@@@+++....",
"  ...............+++++@+++++....",
" .................+++++++++.....",
"........+...........+++++.......",
"....+++++++.....................",
"..++++++++++....................",
".+++++@@++++....................",
".+++@@@@@@+++..... ...........  ",
"+++@@@@@@@@+++....   ........   ",
"+++@@@@@@@@+++...               ",
"++@@@@@@@@@@+++.                ",
"+++@@@@@@@@++++.                ",
".++@@@@@@@@+++...               ",
".+++@@@@@@++++...               ",
"..++++@@+++++...                ",
"...+++++++++...                 ",
"...++++++++....                 ",
"......++......                  ",
".............                   ",
" . ........                     ",
"   ... .                        "};
