/* XPM */
static const char *duplicate_xpm[] =
{
/* width height ncolors chars_per_pixel */
"16 16 2 1",
/* colors */
"A c #000000008080",
"B c None",
/* pixels */
"BBBBBBBBBBBBBBBB",
"BBBBBBBBBBBBBBBB",
"BBBBBBBBBBBBBBBB",
"BBBBBAABBAABBBBB",
"BBBBBAABBAABBBBB",
"BBBBBAABBAABBBBB",
"BBBBBAABBAABBBBB",
"BBBBBAABBAABBBBB",
"BBBBBAABBAABBBBB",
"BBBBBAABBAABBBBB",
"BBBBBAABBAABBBBB",
"BBBBBAABBAABBBBB",
"BBBBBAABBAABBBBB",
"BBBBBBBBBBBBBBBB",
"BBBBBBBBBBBBBBBB",
"BBBBBBBBBBBBBBBB"};
