/* XPM */
static const char *move_xpm[] =
{
/* width height ncolors chars_per_pixel */
"16 16 8 1",
/* colors */
"A c #000000008080",
"B c #52528282D0D0",
"C c #71719898D9D9",
"D c #A8A8C0C0E8E8",
"E c None",
"F c #D2D2DFDFF4F4",
"G c #DCDCE6E6F6F6",
"H c #E2E2EAEAF8F8",
/* pixels */
"EEEEEEEEEEEEEEEE",
"EEEEEEEAAEEEEEEE",
"EEEEAEAGBAABEEEE",
"EEEAGAAGDAHAEEEE",
"EEEADGAGDAGABAEE",
"EEEEAGAGGAHAGBAE",
"EEABAGDFDGFCGFAE",
"EAGGAFGFFFGGFGAE",
"EAHGCFGGGGGGGAEE",
"EEAGGGGGGFFDHAEE",
"EEEAFFGGGGDFBAEE",
"EEEADFGGFDFDAEEE",
"EEEEAFDFFFFAEEEE",
"EEEEEAFGFFDAEEEE",
"EEEEEADFDDCAEEEE",
"EEEEEEEEEEEEEEEE",
};
