/* XPM */
static const char *save_xpm[] =
{
/* width height ncolors chars_per_pixel */
"16 16 10 1",
/* colors */
"A c #000000008080",
"B c #1C1C38386666",
"C c #2D2D5959A3A3",
"D c #34346767BCBC",
"E c #55558484D1D1",
"F c #9F9FB9B9E5E5",
"G c #A5A5BEBEE7E7",
"H c None",
"I c #CBCBD9D9F1F1",
"J c #DCDCE6E6F6F6",
/* pixels */
"HHHHHHHHHHHHHHHH",
"HAAAAAAAAAAAAAAH",
"HADAJJJJJJJJADAH",
"HAEAJDDDDDDJAEAH",
"HAEAJJJJJJJJAEAH",
"HAEAJDDDDDDJAEAH",
"HAEAJJJJJJJJAEAH",
"HAEDAAAAAAAADEAH",
"HAEEEEEEEEEEEEAH",
"HAEEDAAAAAADEEAH",
"HAEEAGGGFIJAEEAH",
"HAEEAGBCCIJAEEAH",
"HAEEAGBCCIJAEEAH",
"HAEEAGGIJJJAEEAH",
"HHAAAAAAAAAAAAHH",
"HHHHHHHHHHHHHHHH",
};
