/* XPM */
static const char *zoomout_curs_xpm[] =
{
/* width height ncolors chars_per_pixel */
"16 16 3 1",
/* colors */
"A c #FFFFFFFFFFFF",
"B c None",
"C c #000000000000",
/* pixels */
"BBBBCCCCBBBBBBBB",
"BBCCAAAACCBBBBBB",
"BCAAAAAAAACBBBBB",
"BCAAAAAAAACBBBBB",
"CAAAAAAAAAACBBBB",
"CAACCCCCCAACBBBB",
"CAACCCCCCAACBBBB",
"CAAAAAAAAAACBBBB",
"BCAAAAAAAACBBBBB",
"BCAAAAAAAACCBBBB",
"BBCCAAAACCCACBBB",
"BBBBCCCCBCAAACBB",
"BBBBBBBBBBCAAACB",
"BBBBBBBBBBBCAAAC",
"BBBBBBBBBBBBCAAC",
"BBBBBBBBBBBBBCCB",
};
