/* XPM */
static const char *icon_format_xpm[] = {
/* width height ncolors chars_per_pixel */
"150 22 3 1",
/* colors */
"A c #FFFFFFFFFFFF",
"B c None",
"C c #000000000000",
/* pixels */
"CCCCCCCCCCCCCCCCCCCCCCCCCCCCCCCCCCCCCCCCCCCCCCCCCCCCCCCCCCCCCCCCCCCCCCCCCCCCCCCCCCCCCCCCCCCCCCCCCCCCCCCCCCCCCCCCCCCCCCCCCCCCCCCCCCCCCCCCCCCCCCCCCCCCCC",
"CCCCCCCCCCCCCCCCCCCCCCCCCCCCCCCCCCCCCCCCCCCCCCCCCCCCCCCCCCCCCCCCCCCCCCCCCCCCCCCCCCCCCCCCCCCCCCCCCCCCCCCCCCCCCCCCCCCCCCCCCCCCCCCCCCCCCCCCCCCCCCCCCCCCCC",
"CCCCCCCACCCCCCCCCCCCCAAACCCCCCCCCCCCAAACCCCCCCCCCCCCACCCCCCCCCCCAAAAAACCCCCCCCCCCAAAACCCCCCCCCCCCCCCCCCCCCCCCCCCCCCCCCCCCCCCCCCCCCCCCCCCCCACCCCCCCACCC",
"CCCCCCAACCCCCCCCCCCCACCCACCCCCCCCCCACCCACCCCCCCCCCCAACCCCCCCCCCCACCCCCCCCCCCCCCCACCCCCCCCCCCCCCCCCCCCCCCCCCCCCCCCCCCCCCCCCCCCCCCCCCCCCCCCCACCCCCCCACCC",
"CCCCCACACCCCCCCCCCCACCCCCACCCCCCCCACCCCCACCCCCCCCCACACCCCCCCCCCCACCCCCCCCCCCCCCACCCCCCCCCCCCCCCCCCCCCCCCCCCCCCCCCCCCCCCCCCCCCCCCCCCCCCCCCCAACCCCCCACCC",
"CCCCCCCACCCCCCCCCCCCCCCCCACCCCCCCCCCCCCCACCCCCCCCACCACCCCCCCCCCCACCCCCCCCCCCCCCACCCCCCCCCCCCCCCCCCCCCCCCCCCCCCCCCCCCCCCCCCCCCCCCCCCCCCCCCCACACCCCCACCC",
"CCCCCCCACCCCCCCCCCCCCCCCACCCCCCCCCCCCCCACCCCCCCCACCCACCCCCCCCCCCACCCCCCCCCCCCCCACCCCCCCCCCCCCCCCAAACCCCCCCCCCCCAAACCCCCCCCCCCCAAACCCCCCCCCACCACCCCACCC",
"CCCCCCCACCCCCCCCCCCCCCCACCCCCCCCCCCCCAACCCCCCCCCAAAAAAAACCCCCCCCCAAAACCCCCCCCCCAAAAACCCCCCCCCCCCAAACCCCCCCCCCCCAAACCCCCCCCCCCCAAACCCCCCCCCACCCACCCACCC",
"CCCCCCCACCCCCCCCCCCCCCACCCCCCCCCCCCCCCCACCCCCCCCCCCCACCCCCCCCCCCCCCCCACCCCCCCCCACCCCACCCCCCCCCCCAAACCCCCCCCCCCCAAACCCCCCCCCCCCAAACCCCCCCCCACCCCACCACCC",
"CCCCCCCACCCCCCCCCCCCCACCCCCCCCCCCCCCCCCCACCCCCCCCCCCACCCCCCCCCCCCCCCCCACCCCCCCCACCCCCACCCCCCCCCCCCCCCCCCCCCCCCCCCCCCCCCCCCCCCCCCCCCCCCCCCCACCCCCACACCC",
"CCCCCCCACCCCCCCCCCCCACCCCCCCCCCCCCACCCCCACCCCCCCCCCCACCCCCCCCCCCCCCCCCACCCCCCCCACCCCCACCCCCCCCCCCCCCCCCCCCCCCCCCCCCCCCCCCCCCCCCCCCCCCCCCCCACCCCCCAACCC",
"CCCCCCCACCCCCCCCCCCACCCCCCCCCCCCCCCACCCACCCCCCCCCCCCACCCCCCCCCCCACCCCACCCCCCCCCCACCCACCCCCCCCCCCCCCCCCCCCCCCCCCCCCCCCCCCCCCCCCCCCCCCCCCCCCACCCCCCCACCC",
"CCCCCAAAAACCCCCCCCCAAAAAAACCCCCCCCCCAAACCCCCCCCCCCCCACCCCCCCCCCCCAAAACCCCCCCCCCCCAAACCCCCCCCCCCCCCCCCCCCCCCCCCCCCCCCCCCCCCCCCCCCCCCCCCCCCCACCCCCCCACCC",
"CCCCCCCCCCCCCCCCCCCCCCCCCCCCCCCCCCCCCCCCCCCCCCCCCCCCCCCCCCCCCCCCCCCCCCCCCCCCCCCCCCCCCCCCCCCCCCCCCCCCCCCCCCCCCCCCCCCCCCCCCCCCCCCCCCCCCCCCCCCCCCCCCCCCCC",
"CCCCCCCCCCCCCCCCCCCCCCCCCCCCCCCCCCCCCCCCCCCCCCCCCCCCCCCCCCCCCCCCCCCCCCCCCCCCCCCCCCCCCCCCCCCCCCCCCCCCCCCCCCCCCCCCCCCCCCCCCCCCCCCCCCCCCCCCCCCCCCCCCCCCCC",
"CCCCCCCBBBBBBBBCCCCCCCBBBBBBBBCCCCCCCBBBBBBBBCCCCCCCBBBBBBBBCCCCCCCBBBBBBBBCCCCCCCBBBBBBBBCCCCCCCBBBBBBBBCCCCCCCBBBBBBBBCCCCCCCBBBBBBBBCCCCCCCBBBBBBBB",
"CCCACCCBBBBBBBBCCAAACCBBBBBBBBCCAAACCBBBBBBBBCCCAACCBBBBBBBBCCAAACCBBBBBBBBCCAAACCBBBBBBBBCCCCCCCBBBBBBBBCCCCCCCBBBBBBBBCCCCCCCBBBBBBBBCACCCACBBBBBBBB",
"CCAACCCBBBBBBBBCCCCACCBBBBBBBBCCCCACCBBBBBBBBCCACACCBBBBBBBBCCACCCCBBBBBBBBCCACCCCBBBBBBBBCCCCCCCBBBBBBBBCCCCCCCBBBBBBBBCCCCCCCBBBBBBBBCAACCACBBBBBBBB",
"CCCACCCBBBBBBBBCCCACCCBBBBBBBBCCCACCCBBBBBBBBCCAAAACBBBBBBBBCCAAACCBBBBBBBBCCAAACCBBBBBBBBCCCACCCBBBBBBBBCCCACCCBBBBBBBBCCCACCCBBBBBBBBCACACACBBBBBBBB",
"CCCACCCBBBBBBBBCCACCCCBBBBBBBBCCCCACCBBBBBBBBCCCCACCBBBBBBBBCCCCACCBBBBBBBBCCACACCBBBBBBBBCCCCCCCBBBBBBBBCCCCCCCBBBBBBBBCCCCCCCBBBBBBBBCACCAACBBBBBBBB",
"CCAAACCBBBBBBBBCCAAACCBBBBBBBBCCAAACCBBBBBBBBCCCCACCBBBBBBBBCCAAACCBBBBBBBBCCAAACCBBBBBBBBCCCCCCCBBBBBBBBCCCCCCCBBBBBBBBCCCCCCCBBBBBBBBCACCCACBBBBBBBB",
"CCCCCCCBBBBBBBBCCCCCCCBBBBBBBBCCCCCCCBBBBBBBBCCCCCCCBBBBBBBBCCCCCCCBBBBBBBBCCCCCCCBBBBBBBBCCCCCCCBBBBBBBBCCCCCCCBBBBBBBBCCCCCCCBBBBBBBBCCCCCCCBBBBBBBB"};
