/* XPM */
static const char *select_xpm[] =
{
/* width height ncolors chars_per_pixel */
"16 16 3 1",
/* colors */
"A c #000000008080",
"B c None",
"C c #DCDCE6E6F6F6",
/* pixels */
"BBBBBBBBBBBBBBBB",
"BBBBBBBBBBBBBBBB",
"BAACAACAACAACAAB",
"BCCCCCCCCCCCCCCB",
"BACCCCCCCCCCCCAB",
"BACCCCCCCCCCCCAB",
"BCCCCCCCCCCCCCCB",
"BACCCCCCCCCCCCAB",
"BACCCCCCCCCCCCAB",
"BCCCCCCCCCCCCCCB",
"BACCCCCCCCCCCCAB",
"BACCCCCCCCCCCCAB",
"BCCCCCCCCCCCCCCB",
"BAACAACAACAACAAB",
"BBBBBBBBBBBBBBBB",
"BBBBBBBBBBBBBBBB",
};
