/* XPM */
static const char *zoomin_xpm[] =
{
/* width height ncolors chars_per_pixel */
"16 16 3 1",
/* colors */
"A c #000000008080",
"B c None",
"C c #DCDCE6E6F6F6",
/* pixels */
"BBBBBBBBBBBBBBBB",
"BBBBBAAAABBBBBBB",
"BBBAACCCCAABBBBB",
"BBACCCCCCCCABBBB",
"BBACCCAACCCABBBB",
"BACCCCAACCCCABBB",
"BACCAAAAAACCABBB",
"BACCAAAAAACCABBB",
"BACCCCAACCCCABBB",
"BBACCCAACCCABBBB",
"BBACCCCCCCCAABBB",
"BBBAACCCCAAACABB",
"BBBBBAAAABACCCAB",
"BBBBBBBBBBBACCAB",
"BBBBBBBBBBBBAABB",
"BBBBBBBBBBBBBBBB",
};
