/* XPM */
static const char * appicon16_xpm[] = {
"16 16 167 2",
"  	c None",
". 	c #0095FF",
"+ 	c #0095FE",
"@ 	c #0093FE",
"# 	c #0090FE",
"$ 	c #0094FE",
"% 	c #009CFE",
"& 	c #00A4FE",
"* 	c #00A2FE",
"= 	c #009BFE",
"- 	c #009AFE",
"; 	c #009FFF",
"> 	c #00A9FE",
", 	c #00ACFE",
"' 	c #00A1FF",
") 	c #008FFF",
"! 	c #0091FE",
"~ 	c #0099FE",
"{ 	c #00A2FF",
"] 	c #0099FF",
"^ 	c #0088FE",
"/ 	c #007FFF",
"( 	c #007DFF",
"_ 	c #0080FF",
": 	c #008CFE",
"< 	c #00A4FF",
"[ 	c #00B2FF",
"} 	c #00A5FE",
"| 	c #0093FF",
"1 	c #0092FE",
"2 	c #0090FF",
"3 	c #008FFE",
"4 	c #0097FE",
"5 	c #0084FE",
"6 	c #007AFF",
"7 	c #007EFF",
"8 	c #0079FF",
"9 	c #00A7FF",
"0 	c #00B6FE",
"a 	c #0092FF",
"b 	c #0098FE",
"c 	c #00A8FE",
"d 	c #00B4FE",
"e 	c #007CFD",
"f 	c #0084FF",
"g 	c #02C9CC",
"h 	c #1BF589",
"i 	c #04C5CB",
"j 	c #017AFE",
"k 	c #0087FE",
"l 	c #00AFFF",
"m 	c #00B4FF",
"n 	c #009BFF",
"o 	c #00A3FE",
"p 	c #008EFF",
"q 	c #0374FF",
"r 	c #00AEEE",
"s 	c #5BFF2F",
"t 	c #EEC600",
"u 	c #9EE807",
"v 	c #09D1B6",
"w 	c #007BFF",
"x 	c #00B8FF",
"y 	c #009DFF",
"z 	c #00A3FF",
"A 	c #009AFF",
"B 	c #007CFF",
"C 	c #0378FF",
"D 	c #00A2F7",
"E 	c #5EFF3D",
"F 	c #FF8500",
"G 	c #FF5A00",
"H 	c #8BEA19",
"I 	c #00B0E4",
"J 	c #0075FF",
"K 	c #0081FE",
"L 	c #00A8FF",
"M 	c #00A5FF",
"N 	c #0083FE",
"O 	c #007AFE",
"P 	c #027BFF",
"Q 	c #00BBD8",
"R 	c #71F031",
"S 	c #FF9A00",
"T 	c #3CEF63",
"U 	c #0087FF",
"V 	c #00A6FE",
"W 	c #008DFE",
"X 	c #0085FF",
"Y 	c #00C9CD",
"Z 	c #06E2A1",
"` 	c #00A3F0",
" .	c #0076FF",
"..	c #00A9F6",
"+.	c #58EC4E",
"@.	c #AAE308",
"#.	c #00B6E2",
"$.	c #0077FF",
"%.	c #00B2E5",
"&.	c #63FF21",
"*.	c #D2DF00",
"=.	c #53F44D",
"-.	c #00A0FA",
";.	c #0071FF",
">.	c #00A7E9",
",.	c #BCE900",
"'.	c #09D3A2",
").	c #0083FC",
"!.	c #00B5DE",
"~.	c #8FF80B",
"{.	c #FF6600",
"].	c #F39300",
"^.	c #36ED6E",
"/.	c #008BFF",
"(.	c #006CFF",
"_.	c #009AFA",
":.	c #0FD996",
"<.	c #0082FC",
"[.	c #00AAFF",
"}.	c #0078FF",
"|.	c #0086FF",
"1.	c #20E591",
"2.	c #C5C800",
"3.	c #FF6000",
"4.	c #E4B200",
"5.	c #40E16F",
"6.	c #08B9CB",
"7.	c #3FDB74",
"8.	c #00C2CF",
"9.	c #0085FD",
"0.	c #00AAFE",
"a.	c #0082FE",
"b.	c #0178FF",
"c.	c #0089FF",
"d.	c #10DBA6",
"e.	c #90EA15",
"f.	c #FFB200",
"g.	c #EADF00",
"h.	c #2DF169",
"i.	c #008CFF",
"j.	c #008DFF",
"k.	c #00B0FF",
"l.	c #007FFE",
"m.	c #0278FF",
"n.	c #00AFE0",
"o.	c #2CE97B",
"p.	c #7AEB27",
"q.	c #A9E20C",
"r.	c #7CEE21",
"s.	c #1EE985",
"t.	c #009AF9",
"u.	c #00A0FF",
"v.	c #0096FF",
"w.	c #00B5FF",
"x.	c #0081FF",
"y.	c #009EFE",
"z.	c #00B1EF",
"A.	c #00A1FB",
"B.	c #007EFE",
"C.	c #00B9FE",
"D.	c #00B0FE",
"E.	c #0082FF",
"F.	c #00AEFE",
"G.	c #00B3FE",
"H.	c #00B7FF",
"I.	c #0097FF",
"J.	c #00A7FE",
". + @ # $ % & * = - ; > , ' + ) ",
". @ ) ! ~ { ] ^ / ( _ : < [ } | ",
"1 2 3 4 } ; 5 6 6 7 8 8 5 9 0 { ",
"! a b c d ] e f g h i _ j k l m ",
"+ n o , , p q r s t u v w 8 $ x ",
"y z A : f B C D E F G H I J K L ",
"M n N O w / P w Q R F S T U 6 a ",
"V W 8 X Y Z `  . ...+.F @.#.$.k ",
"z U  .%.&.*.=.-.J ;.>.,.S '. .).",
"M U  .!.~.{.].^./.(._.,.S :. .<.",
"[.# }.|.1.2.3.4.5.6.7.F ,.8. .9.",
"0.* a.b.c.d.e.f.F F F g.h.i.6 j.",
"* k.y l.m.w n.o.p.q.r.s.t.$.l.u.",
"v.c w.z k 8  .x.y.z.A._ $.B.4 l ",
"3 v.c C.D.4 E.w 8 $.}.w a.~ F.c ",
") p $ o G.H.0.A # : 3 I.V k.J.] "};
