/* XPM */
static const char * appicon_xpm[] = {
"32 32 346 2",
"  	c None",
". 	c #0095FF",
"+ 	c #0095FE",
"@ 	c #0094FE",
"# 	c #0092FE",
"$ 	c #0090FE",
"% 	c #0099FE",
"& 	c #009EFE",
"* 	c #00A2FE",
"= 	c #00A4FE",
"- 	c #00A5FE",
"; 	c #00A6FE",
"> 	c #00A8FE",
", 	c #00A9FE",
"' 	c #00ABFE",
") 	c #00AAFF",
"! 	c #00A7FE",
"~ 	c #009BFE",
"{ 	c #0096FE",
"] 	c #008EFF",
"^ 	c #008EFE",
"/ 	c #0090FF",
"( 	c #0092FF",
"_ 	c #0091FF",
": 	c #0094FF",
"< 	c #0099FF",
"[ 	c #009DFE",
"} 	c #00A2FF",
"| 	c #00A4FF",
"1 	c #00A0FF",
"2 	c #009AFF",
"3 	c #0091FE",
"4 	c #0093FE",
"5 	c #00A8FF",
"6 	c #00ADFF",
"7 	c #00AEFF",
"8 	c #00ACFF",
"9 	c #00A5FF",
"0 	c #009DFF",
"a 	c #0097FF",
"b 	c #0096FF",
"c 	c #009BFF",
"d 	c #00A3FF",
"e 	c #0085FF",
"f 	c #0081FF",
"g 	c #0080FE",
"h 	c #0080FF",
"i 	c #0082FF",
"j 	c #0088FF",
"k 	c #00B1FF",
"l 	c #009EFF",
"m 	c #008FFE",
"n 	c #00A3FE",
"o 	c #00A0FE",
"p 	c #0086FE",
"q 	c #007EFE",
"r 	c #007EFF",
"s 	c #007FFE",
"t 	c #007FFF",
"u 	c #0089FF",
"v 	c #009CFE",
"w 	c #00B4FF",
"x 	c #008FFF",
"y 	c #0093FF",
"z 	c #007DFF",
"A 	c #00B0FF",
"B 	c #00B6FF",
"C 	c #00A7FF",
"D 	c #00A9FF",
"E 	c #007DFE",
"F 	c #0078FF",
"G 	c #007BFF",
"H 	c #00B8FF",
"I 	c #0098FF",
"J 	c #00A1FE",
"K 	c #00AAFE",
"L 	c #00B0FE",
"M 	c #0088FE",
"N 	c #00DAE3",
"O 	c #00E5CB",
"P 	c #00CFE3",
"Q 	c #00A6FF",
"R 	c #00B7FE",
"S 	c #00AEFE",
"T 	c #00A1FF",
"U 	c #00B5FF",
"V 	c #009FFF",
"W 	c #0084FF",
"X 	c #007AFF",
"Y 	c #00B7FF",
"Z 	c #00FFA4",
"` 	c #19FF29",
" .	c #43FF0F",
"..	c #2BFF26",
"+.	c #00FF88",
"@.	c #00BAFA",
"#.	c #007CFE",
"$.	c #00AFFF",
"%.	c #00BBFF",
"&.	c #00ACFE",
"*.	c #008BFF",
"=.	c #00F0CC",
"-.	c #22FF1B",
";.	c #B9FA00",
">.	c #F7E100",
",.	c #E7E600",
"'.	c #84FF00",
").	c #05FF5E",
"!.	c #00B8F9",
"~.	c #0075FF",
"{.	c #00BAFF",
"].	c #00FCA3",
"^.	c #60FF00",
"/.	c #FFD600",
"(.	c #FF7B00",
"_.	c #FF7100",
":.	c #FFB800",
"<.	c #9CFF00",
"[.	c #06FF6C",
"}.	c #00B9FF",
"|.	c #0083FF",
"1.	c #0086FF",
"2.	c #00EAC5",
"3.	c #44FF0D",
"4.	c #FCDA00",
"5.	c #FF6B00",
"6.	c #FE3F00",
"7.	c #FF5900",
"8.	c #FFBD00",
"9.	c #76FF00",
"0.	c #00EAB1",
"a.	c #007DFD",
"b.	c #0087FF",
"c.	c #00FF6C",
"d.	c #9AFF00",
"e.	c #FFB500",
"f.	c #FF5800",
"g.	c #FC3E00",
"h.	c #EDDE00",
"i.	c #2EFF2F",
"j.	c #00C0EE",
"k.	c #0178FF",
"l.	c #0085FE",
"m.	c #00BCFA",
"n.	c #09FF5B",
"o.	c #93FF00",
"p.	c #FFC300",
"q.	c #FF6900",
"r.	c #FE4E00",
"s.	c #FF9300",
"t.	c #AAFF00",
"u.	c #00FC7C",
"v.	c #00B2FF",
"w.	c #008AFE",
"x.	c #00B0FA",
"y.	c #00FB82",
"z.	c #68FF05",
"A.	c #F6D700",
"B.	c #FF7C00",
"C.	c #FF6D00",
"D.	c #F5D100",
"E.	c #45FF1D",
"F.	c #00CADC",
"G.	c #0079FF",
"H.	c #0098FE",
"I.	c #0082FE",
"J.	c #00E4E3",
"K.	c #00E9D3",
"L.	c #00C8F6",
"M.	c #007FFD",
"N.	c #017AFF",
"O.	c #00DDBB",
"P.	c #4EFF17",
"Q.	c #EEDE00",
"R.	c #FF8501",
"S.	c #FFA402",
"T.	c #9EFF00",
"U.	c #00F98C",
"V.	c #0087FE",
"W.	c #00FF9C",
"X.	c #1DFF21",
"Y.	c #3BFF0C",
"Z.	c #17FF3A",
"`.	c #00ECBD",
" +	c #007BFE",
".+	c #00CFCA",
"++	c #5CFF15",
"@+	c #FBC700",
"#+	c #FF9302",
"$+	c #E2E500",
"%+	c #26FF3A",
"&+	c #00B0FC",
"*+	c #008CFE",
"=+	c #008AFF",
"-+	c #00E9CE",
";+	c #25FF19",
">+	c #BEFA00",
",+	c #F4E600",
"'+	c #C9F600",
")+	c #42FF0F",
"!+	c #00EBB5",
"~+	c #05EF86",
"{+	c #BBF500",
"]+	c #FF9F00",
"^+	c #FCD000",
"/+	c #4DFF12",
"(+	c #00CEE2",
"_+	c #0081FE",
":+	c #0196FF",
"<+	c #00F79E",
"[+	c #6DFF00",
"}+	c #FFCE00",
"|+	c #FF7D00",
"1+	c #FF8E00",
"2+	c #EBE000",
"3+	c #43FF13",
"4+	c #00D4D0",
"5+	c #0080FD",
"6+	c #037AFF",
"7+	c #00C5C4",
"8+	c #8BFF08",
"9+	c #FFAD00",
"0+	c #FFC500",
"a+	c #65FF04",
"b+	c #00DDCE",
"c+	c #018CFF",
"d+	c #00EDB3",
"e+	c #63FF04",
"f+	c #FF4400",
"g+	c #FF8000",
"h+	c #D9EE00",
"i+	c #21FF40",
"j+	c #00ADFD",
"k+	c #0076FF",
"l+	c #027AFF",
"m+	c #00C8BF",
"n+	c #90FF04",
"o+	c #FFC800",
"p+	c #62FF05",
"q+	c #00DCCF",
"r+	c #00C7F1",
"s+	c #1AFF37",
"t+	c #D8F000",
"u+	c #FF8700",
"v+	c #FE4200",
"w+	c #FE4500",
"x+	c #FF9600",
"y+	c #B0FF00",
"z+	c #03FE74",
"A+	c #0073FF",
"B+	c #0CF96E",
"C+	c #C9F000",
"D+	c #FFA300",
"E+	c #F9D900",
"F+	c #44FF15",
"G+	c #00CEE5",
"H+	c #007CFD",
"I+	c #00E4C7",
"J+	c #40FF13",
"K+	c #E2E700",
"L+	c #FF8D03",
"M+	c #FF5500",
"N+	c #FFAB00",
"O+	c #A4FF00",
"P+	c #18FF5A",
"Q+	c #00C4D5",
"R+	c #00A2F1",
"S+	c #00B3E6",
"T+	c #08F379",
"U+	c #91FF00",
"V+	c #FFBE00",
"W+	c #FFAA03",
"X+	c #C4F600",
"Y+	c #12FF51",
"Z+	c #0089FE",
"`+	c #00E6BD",
" @	c #34FF24",
".@	c #C1F600",
"+@	c #FFAF00",
"@@	c #FF7000",
"#@	c #FFAC00",
"$@	c #D2EE00",
"%@	c #73FF08",
"&@	c #50FF2B",
"*@	c #62FF15",
"=@	c #B8F900",
"-@	c #FFC400",
";@	c #FF9D00",
">@	c #5EFF00",
",@	c #00EEB1",
"'@	c #007CFF",
")@	c #00ABFF",
"!@	c #00CDDE",
"~@	c #0FFF59",
"{@	c #ECE100",
"]@	c #FFA900",
"^@	c #FF8900",
"/@	c #FF9800",
"(@	c #FFB600",
"_@	c #FFA200",
":@	c #8BFF00",
"<@	c #02FF69",
"[@	c #00EDA9",
"}@	c #27FF32",
"|@	c #8DFF00",
"1@	c #DFE600",
"2@	c #FEC600",
"3@	c #FFB301",
"4@	c #FFAF02",
"5@	c #FFB302",
"6@	c #FFC900",
"7@	c #DBED00",
"8@	c #70FF00",
"9@	c #00FF68",
"0@	c #00BFF9",
"a@	c #00BCF4",
"b@	c #00EE9A",
"c@	c #22FF40",
"d@	c #5DFF0E",
"e@	c #9BFF00",
"f@	c #92FF00",
"g@	c #65FF06",
"h@	c #22FF35",
"i@	c #00F799",
"j@	c #00B3FF",
"k@	c #0097FE",
"l@	c #009FFE",
"m@	c #00B1FE",
"n@	c #0077FF",
"o@	c #00B1F5",
"p@	c #00D4CB",
"q@	c #00EEA3",
"r@	c #00F792",
"s@	c #00F49A",
"t@	c #00E1BD",
"u@	c #00BEED",
"v@	c #00B3FE",
"w@	c #009CFF",
"x@	c #009AFE",
"y@	c #00B5FE",
"z@	c #008CFF",
"A@	c #008DFF",
"B@	c #00B8FE",
"C@	c #00B4FE",
"D@	c #00ADFE",
"E@	c #008DFE",
". + @ + + # $ $ # . % & * = - - = = = ; > , ' ) ! * ~ { # ] ^ / ",
"@ @ . + ( / $ _ : < [ } = | 1 2 . 3 _ 4 < 1 5 6 7 8 9 0 a _ ] ] ",
": . . # / / $ ( b c 1 d 1 < ] e f g g h i j @ d 8 k 7 ! l . / ] ",
"+ @ # $ m ] 3 + 2 1 n o @ p q r s s t s q q q u v 8 w k , l + x ",
"+ ( / / ] x y < 1 | } a e r t h s z z r s g s r e c A B k C c ( ",
"( $ / $ / y % 1 C D n x s t g E F r f G F q h h r e 1 w H A | I ",
"$ $ 3 # @ < J K L 7 J M q h E h ) N O P l G q h t E M Q R H S T ",
"3 ( : a 2 1 D k U k V W r q X Y Z `  ...+.@.G #.g t r _ $.%.U D ",
": + I ~ V | &.k w 6 % f s G *.=.-.;.>.,.'.).!.~.q t t f 0 Y {.A ",
"{ < 0 J d d = 9 d 2 u t t X : ].^./.(._.:.<.[.V F h h z j ) }.U ",
"% & } n V 2 3 *.j |.s t g G 1.2.3.4.5.6.7.8.9.0.W a.g t r 2 w Y ",
"[ * d o : b.g t t t s h s s F A c.d.e.f.g.5.h.i.j.k.q t z u ) B ",
"J 9 n b l.r s t g q q g h g E G m.n.o.p.q.r.s.t.u.b F s q h ~ v.",
"= ; l w.r h h E X f |.X G s h q X x.y.z.A.B.C.D.E.F.G.r t r ] 8 ",
"; = H.I.s h q z A J.K.L.u F g h M.N.y O.P.Q.R.S.T.U.*.G h r V.9 ",
"Q d _ t t q G B W.X.Y.Z.`.y  +s g s F G .+++@+#+$+%+&+F g t i 0 ",
"; J *+q s X =+-+;+>+,+'+)+!+=+G.g t g G.b.~+{+]+^+/+(+F _+s g < ",
"! T w.r s F :+<+[+}+|+1+2+3+4+G 5+h t q 6+7+8+9+0+a+b+X g h s b ",
", n *+q s X c+d+e+p.7.f+g+h+i+j+k+s g q l+m+n+9+o+p+q+X g h s b ",
"K ; 3 q s q G r+s+t+u+v+w+x+y+z+l A+F A+( B+C+D+E+F+G+F _+s g I ",
", D 2 _+t g H+b.I+J+K+L+r.M+N+O+P+Q+R+S+T+U+V+W+X+Y+) G.g t |.0 ",
"! ' n Z+q h g G.] `+ @.@+@@@5.#@$@%@&@*@=@-@;@4.>@,@e '@h r V.d ",
"- &.)@H.i r s g G.j !@~@'.{@]@^@/@(@p.V+]@_@/.:@<@S F s s t / D ",
"o ) 7 , ( h s g g X F | [@}@|@1@2@3@4@5@6@7@8@9@0@G E g r |.l 7 ",
"v - 7 L C _ q r h g E k+1.a@b@c@d@:@e@f@g@h@i@j@G E g t r / D A ",
"k@l@) m@v.D 3 h r s h g a.n@*.o@p@q@r@s@t@u@: F q h t z b.T $.7 ",
"# H.J ' v@U S v 1.r s g h s G.n@'@W j 1.h G.F s g t r e v S L D ",
"$ y < d 8 U H w Q x f z t t g s z '@'@'@z r s t t z b.w@8 k )@} ",
"^ m ( x@} )@y@}.H $.& z@g E q r s s t s t s q r h z@1 8 A 8 9 w@",
"m A@] # a V K v.H {.Y 6 l / p f s s r r t g |.z@2 C A A 8 | w@. ",
"3 ^ A@^ _ . [ Q 6 w B@H C@D@- w@@ $ ] ^ ( k@l@5 7 k 7 ) d c . _ ",
"4 _ x E@] x 4 < V C 6 k w w v@k S ' )@)@)@S $.A 7 )@Q 1 2 . ( / "};
