/* XPM */
static const char * appicon16_xpm[] = {
"16 16 5 1",
"   c None",
".  c #FFFFFF",
"+  c #BDBDBD",
"@  c #7B7B7B",
"#  c #000000",
".......+++@@@@@.",
".......++@@@@@@@",
"......++@@@###@@",
".....+++@@#####@",
"...+.++@@@#####@",
".+++++++@@@###@@",
"+++@++++@@@@@@@+",
"+@@@@@+++@@@@@++",
"@@##@@@++++@++++",
"@####@@+..++++++",
"@#####@@...+++++",
"@####@@+.....+..",
"@@@##@@.........",
"+@@@@@+.........",
".++@++..........",
"...+............"};
