/* XPM */
static const char *autofit_xpm[] = {
/* width height ncolors chars_per_pixel */
"16 16 2 1",
/* colors */
"A c #000000008080",
"B c #DCDCE6E6F6F6",
/* pixels */
"AAAAAAAAAAAAAAAA",
"ABBBBBBBBBBBBBBA",
"ABAAAABBBBAAAABA",
"ABAAABBBBBBAAABA",
"ABAAAABBBBAAAABA",
"ABABAAABBAAABABA",
"ABBBBABBBBABBBBA",
"ABBBBBBBBBBBBBBA",
"ABBBBBBBBBBBBBBA",
"ABBBBABBBBABBBBA",
"ABABAAABBAAABABA",
"ABAAAABBBBAAAABA",
"ABAAABBBBBBAAABA",
"ABAAAABBBBAAAABA",
"ABBBBBBBBBBBBBBA",
"AAAAAAAAAAAAAAAA"};
