/* XPM */
static const char *deltime_xpm[] = {
/* width height ncolors chars_per_pixel */
"16 16 2 1",
/* colors */
"A c None",
"B c #EAEA07071212",
/* pixels */
"AAAAAAAAAAAAAAAA",
"AAAAAAAAAAAAAAAA",
"AAAABAAAAAABAAAA",
"AAABBBAAAABBBAAA",
"AABBBBBAABBBBBAA",
"AAABBBBBBBBBBAAA",
"AAAABBBBBBBBAAAA",
"AAAAABBBBBBAAAAA",
"AAAAABBBBBBAAAAA",
"AAAABBBBBBBBAAAA",
"AAABBBBBBBBBBAAA",
"AABBBBBAABBBBBAA",
"AAABBBAAAABBBAAA",
"AAAABAAAAAABAAAA",
"AAAAAAAAAAAAAAAA",
"AAAAAAAAAAAAAAAA"};
