/* XPM */
static const char *help_xpm[] = {
/* width height ncolors chars_per_pixel */
"16 16 5 1",
/* colors */
"A c #000000008080",
"B c #A8A8C0C0E8E8",
"C c None",
"D c #C4C4D5D5F0F0",
"E c #DCDCE6E6F6F6",
/* pixels */
"CCCCCCCCCCCCCCCC",
"CCCCBAAAAAABCCCC",
"CCCBADEEEEDABCCC",
"CCCADEEEEEEDACCC",
"CCCAEEEADEEDACCC",
"CCCADEEADEEDACCC",
"CCCBAAAAEEEABCCC",
"CCCCCCAEEEDACCCC",
"CCCCCADEEDABCCCC",
"CCCCCAEEEDACCCCC",
"CCCCCBAAAABCCCCC",
"CCCCCAEEEDACCCCC",
"CCCCCAEEEDACCCCC",
"CCCCCADEEDACCCCC",
"CCCCCBAAAABCCCCC",
"CCCCCCCCCCCCCCCC"};
