/* XPM */
static const char *patterns_xpm[] = {
/* width height ncolors chars_per_pixel */
"16 16 10 1",
/* colors */
"A c #000000008080",
"B c #8989A9A9DFDF",
"C c #9A9AB6B6E4E4",
"D c #A8A8C0C0E8E8",
"E c #B8B8CCCCECEC",
"F c None",
"G c #C4C4D5D5F0F0",
"H c #D2D2DFDFF4F4",
"I c #DCDCE6E6F6F6",
"J c #E2E2EAEAF8F8",
/* pixels */
"FAAAAFFFFFFFFFFF",
"AGGEDAFFFFFFFFFF",
"AAAAAAAAAAAAAAAF",
"AHHGGEEGGGEGECBA",
"AHHHHHHHHHHHGDCA",
"AIIIIIIAAHAAHGDA",
"AIIIIIIAAIAAIHEA",
"AIIIIIIIIIIIIIGA",
"AIIIAAIAAIIIIIHA",
"AIIIAAIAAIIIIIIA",
"AIIIIIIIIIIIIIJA",
"AIIIIIIAAIIIIIIA",
"AIIIIIIAAIIIIIIA",
"AIIIIIIIIIIIIIIA",
"AIIIIIIIIIIIIIIA",
"AAAAAAAAAAAAAAAA"};
