/* XPM */
static const char *pick_curs_xpm[] = {
/* width height ncolors chars_per_pixel */
"16 16 4 1",
/* colors */
"A c #FFFFFFFFFFFF",
"B c None",
"C c #0000FFFFFFFF",
"D c #000000000000",
/* pixels */
"BBBBBBBBBBBBDDDB",
"BBBBBBBBBBBDADDD",
"BBBBBBBBBBDDDDDD",
"BBBBBBBBDDDDDDDD",
"BBBBBBBBBDDDDDDB",
"BBBBBBBBDADDDDBB",
"BBBBBBBDAAADDBBB",
"BBBBBBDAAADBDBBB",
"BBBBBDAAADBBBBBB",
"BBBBDAAADBBBBBBB",
"BBBDCCADBBBBBBBB",
"BBDCCCDBBBBBBBBB",
"BDCCCDBBBBBBBBBB",
"DCCCDBBBBBBBBBBB",
"DCCDBBBBBBBBBBBB",
"DDDBBBBBBBBBBBBB"};
