/* XPM */
static const char *pick_down_xpm[] = {
/* width height ncolors chars_per_pixel */
"16 16 3 1",
/* colors */
"A c #000000004040",
"B c #494969699F9F",
"C c #8C8C9696A6A6",
/* pixels */
"CCCCCCCCCCCCAAAC",
"CCCCCCCCCCCACAAA",
"CCCCCCCCCCAAAAAA",
"CCCCCCCCAAAAAAAA",
"CCCCCCCCCAAAAAAC",
"CCCCCCCCACAAAACC",
"CCCCCCCACCCAACCC",
"CCCCCCACCCACACCC",
"CCCCCACCCACCCCCC",
"CCCCACCCACCCCCCC",
"CCCABBCACCCCCCCC",
"CCABBBACCCCCCCCC",
"CABBBACCCCCCCCCC",
"ABBBACCCCCCCCCCC",
"ABBACCCCCCCCCCCC",
"AAACCCCCCCCCCCCC"};
