/* XPM */
static const char *play_xpm[] =
{
/* width height ncolors chars_per_pixel */
"16 16 39 2",
/* colors */
"AA c #00004A4A0000",
"BA c #000094940000",
"CA c #00009C9C0000",
"DA c #080852520808",
"EA c #08085A5A0808",
"FA c #080894940000",
"GA c #08089C9C0000",
"HA c #0808B5B50000",
"IA c #10105A5A1010",
"JA c #101073731010",
"KA c #10107B7B0808",
"LA c #101084840808",
"MA c #10108C8C0808",
"NA c #10108C8C1010",
"OA c #101094941010",
"PA c #181852522121",
"AB c #181863631818",
"BB c #18186B6B1818",
"CB c #181873731818",
"DB c #181884841010",
"EB c #181894941010",
"FB c #18189C9C1818",
"GB c #21214A4A2121",
"HB c #212152522121",
"IB c #212152522929",
"JB c #21215A5A2121",
"KB c #21217B7B1818",
"LB c #212184841818",
"MB c #21218C8C1818",
"NB c #21218C8C2121",
"OB c #292952522929",
"PB c #313142423131",
"AC c #313152523131",
"BC c #313184843131",
"CC c #393963633939",
"DC c #39396B6B3939",
"EC c #7373B5B57B7B",
"FC c #7373BDBD7B7B",
"GC c None",
/* pixels */
"GCGCGCGCGCGCGCGCGCGCGCGCGCGCGCGC",
"GCGCGCGCGCGCGCGCGCGCGCGCGCGCGCGC",
"GCGCECACFCGCGCGCGCGCGCGCGCGCGCGC",
"GCGCOBHAHBHBECGCGCGCGCGCGCGCGCGC",
"GCGCOBHAHAHAABJBFCGCGCGCGCGCGCGC",
"GCGCOBHAKBNBHAHAABIAECGCGCGCGCGC",
"GCGCHBHALBEBMALAHAHADAGBECGCGCGC",
"GCGCHBHALBGAGAFBMAKAHAHAAALBGCGC",
"GCGCHBHALBCABAFAOAEBBCDBCBPBGCGC",
"GCGCIBHAMBBABANABACBAAAACCGCGCGC",
"GCGCPAHALBBANAJAAAAADCGCGCGCGCGC",
"GCGCAAHABBEAAAAACCGCGCGCGCGCGCGC",
"GCGCCCDCAAAADCGCGCGCGCGCGCGCGCGC",
"GCGCFCAACCGCGCGCGCGCGCGCGCGCGCGC",
"GCGCGCGCGCGCGCGCGCGCGCGCGCGCGCGC",
"GCGCGCGCGCGCGCGCGCGCGCGCGCGCGCGC",
};
