/* XPM */
static const char *record_xpm[] = {
/* width height ncolors chars_per_pixel */
"16 16 4 1",
/* colors */
"A c #0808B5B50000",
"B c #101073731010",
"C c #7373BDBD7B7B",
"D c None",
/* pixels */
"DDDDDDDDDDDDDDDD",
"DDDDDDDDDDDDDDDD",
"DDDDDCBBBBCDDDDD",
"DDDCBBAAAABBCDDD",
"DDDBAAAAAAAABDDD",
"DDCBAAAAAAAABCDD",
"DDBAAAAAAAAAABDD",
"DDBAAAAAAAAAABDD",
"DDBAAAAAAAAAABDD",
"DDBAAAAAAAAAABDD",
"DDCBAAAAAAAABCDD",
"DDDBAAAAAAAABDDD",
"DDDCBBAAAABBCDDD",
"DDDDDCBBBBCDDDDD",
"DDDDDDDDDDDDDDDD",
"DDDDDDDDDDDDDDDD"};
