/* XPM */
static const char * appicon_xpm[] = {
"32 32 617 2",
"  	c None",
". 	c #01B0FD",
"+ 	c #01B0FE",
"@ 	c #01B1FD",
"# 	c #01AEFD",
"$ 	c #01ACFD",
"% 	c #01B4FD",
"& 	c #01B8FD",
"* 	c #01BCFD",
"= 	c #01C0FD",
"- 	c #01BFFD",
"; 	c #01BEFD",
"> 	c #01BAFD",
", 	c #01ADFD",
"' 	c #01B6FD",
") 	c #01C3FD",
"! 	c #01CAFD",
"~ 	c #01CBFD",
"{ 	c #01C9FD",
"] 	c #01C4FD",
"^ 	c #01B7FD",
"/ 	c #01ABFD",
"( 	c #01ACFE",
"_ 	c #01ABFE",
": 	c #01AFFE",
"< 	c #01BBFE",
"[ 	c #01BFFE",
"} 	c #01BEFE",
"| 	c #01B9FE",
"1 	c #01A6FE",
"2 	c #019AFE",
"3 	c #0190FE",
"4 	c #018BFE",
"5 	c #0188FE",
"6 	c #018CFE",
"7 	c #0194FE",
"8 	c #01A1FE",
"9 	c #01C8FE",
"0 	c #01CEFE",
"a 	c #01CDFE",
"b 	c #01C6FE",
"c 	c #01B6FE",
"d 	c #01AEFE",
"e 	c #01B8FE",
"f 	c #019DFD",
"g 	c #017AFE",
"h 	c #016CFE",
"i 	c #0163FE",
"j 	c #015EFE",
"k 	c #0162FD",
"l 	c #016AFD",
"m 	c #018FFD",
"n 	c #01A8FD",
"o 	c #01BAFE",
"p 	c #01CBFE",
"q 	c #01D0FD",
"r 	c #01CFFE",
"s 	c #01BDFD",
"t 	c #01B3FD",
"u 	c #01ADFE",
"v 	c #01AFFD",
"w 	c #01B4FE",
"x 	c #0199FD",
"y 	c #0183FD",
"z 	c #016CFD",
"A 	c #0159FE",
"B 	c #014DFE",
"C 	c #0147FD",
"D 	c #0140FD",
"E 	c #013CFD",
"F 	c #0146FD",
"G 	c #0160FD",
"H 	c #0180FD",
"I 	c #019EFE",
"J 	c #01CCFD",
"K 	c #01D3FD",
"L 	c #01D1FD",
"M 	c #01C8FD",
"N 	c #01BBFD",
"O 	c #01B3FE",
"P 	c #01B5FD",
"Q 	c #01C2FD",
"R 	c #01C6FD",
"S 	c #01A3FE",
"T 	c #0186FE",
"U 	c #016BFD",
"V 	c #0156FE",
"W 	c #0154FD",
"X 	c #0062FD",
"Y 	c #0173FF",
"Z 	c #0172FF",
"` 	c #0055FE",
" .	c #0134FD",
"..	c #0125FE",
"+.	c #012EFE",
"@.	c #014EFD",
"#.	c #0173FE",
"$.	c #019BFE",
"%.	c #01D6FD",
"&.	c #01C5FD",
"*.	c #01C1FE",
"=.	c #01CDFD",
"-.	c #01C7FD",
";.	c #0178FE",
">.	c #015DFD",
",.	c #015BFD",
"'.	c #0187FF",
").	c #00D1FF",
"!.	c #00F0E1",
"~.	c #00F4D4",
"{.	c #00DCF5",
"].	c #0191FF",
"^.	c #0039FF",
"/.	c #0111FD",
"(.	c #001FFD",
"_.	c #0045FE",
":.	c #0177FE",
"<.	c #01A4FD",
"[.	c #01C3FE",
"}.	c #01D4FD",
"|.	c #01D5FD",
"1.	c #01CEFD",
"2.	c #01C2FE",
"3.	c #01B5FE",
"4.	c #01B2FE",
"5.	c #01C1FD",
"6.	c #01CAFE",
"7.	c #0191FE",
"8.	c #016DFD",
"9.	c #0182FF",
"0.	c #01E9F5",
"a.	c #00FF6D",
"b.	c #1CFF14",
"c.	c #3AFF05",
"d.	c #16FF22",
"e.	c #00FF96",
"f.	c #00BEFF",
"g.	c #0131FF",
"h.	c #0100FD",
"i.	c #0014FE",
"j.	c #0048FE",
"k.	c #0181FD",
"l.	c #01B7FE",
"m.	c #0189FE",
"n.	c #0168FE",
"o.	c #00B9FF",
"p.	c #00FF92",
"q.	c #45FF00",
"r.	c #DAFB00",
"s.	c #FDE300",
"t.	c #E5F200",
"u.	c #6FFF00",
"v.	c #00FF61",
"w.	c #00B6FF",
"x.	c #0117FF",
"y.	c #0800FE",
"z.	c #0017FE",
"A.	c #0054FD",
"B.	c #018EFD",
"C.	c #01D1FE",
"D.	c #01A0FD",
"E.	c #017FFE",
"F.	c #015FFD",
"G.	c #0162FE",
"H.	c #00CBFF",
"I.	c #00FF55",
"J.	c #A2FF00",
"K.	c #FFC400",
"L.	c #FF7500",
"M.	c #FF7C00",
"N.	c #FFCB00",
"O.	c #8DFF00",
"P.	c #00FF78",
"Q.	c #008AFF",
"R.	c #0706FC",
"S.	c #0B00FE",
"T.	c #0027FD",
"U.	c #0169FD",
"V.	c #019CFD",
"W.	c #01D5FE",
"X.	c #01C0FE",
"Y.	c #01B1FE",
"Z.	c #01A6FD",
"`.	c #018BFD",
" +	c #016FFE",
".+	c #0151FD",
"++	c #014EFE",
"@+	c #00B1FF",
"#+	c #00FF76",
"$+	c #8EFF00",
"%+	c #FFBD01",
"&+	c #FE5A00",
"*+	c #FE4500",
"=+	c #FD6700",
"-+	c #FFCE00",
";+	c #5FFF00",
">+	c #00F5BE",
",+	c #014BFF",
"'+	c #0E00FD",
")+	c #0508FD",
"!+	c #0043FE",
"~+	c #007FFD",
"{+	c #01D0FE",
"]+	c #01A0FE",
"^+	c #018AFE",
"/+	c #0182FE",
"(+	c #0179FE",
"_+	c #0154FE",
":+	c #0139FE",
"<+	c #002DFD",
"[+	c #0064FF",
"}+	c #00F2DF",
"|+	c #23FF0F",
"1+	c #E4F500",
"2+	c #FF8700",
"3+	c #FE4600",
"4+	c #FE4100",
"5+	c #FF6E00",
"6+	c #F2E900",
"7+	c #22FF1D",
"8+	c #00D4EF",
"9+	c #021BFF",
"0+	c #0A00FD",
"a+	c #001DFE",
"b+	c #015EFD",
"c+	c #0198FE",
"d+	c #01D2FE",
"e+	c #0199FE",
"f+	c #0168FD",
"g+	c #0163FD",
"h+	c #015DFE",
"i+	c #0150FE",
"j+	c #013AFE",
"k+	c #001FFE",
"l+	c #000BFE",
"m+	c #0014FD",
"n+	c #007DFF",
"o+	c #00FEB8",
"p+	c #36FF08",
"q+	c #E7F100",
"r+	c #FF8F00",
"s+	c #FE5000",
"t+	c #FE4C00",
"u+	c #FF9600",
"v+	c #B5FF00",
"w+	c #00FF63",
"x+	c #008DFF",
"y+	c #0401FE",
"z+	c #0306FE",
"A+	c #003CFE",
"B+	c #017DFE",
"C+	c #019FFE",
"D+	c #015BFE",
"E+	c #015CFD",
"F+	c #016AFE",
"G+	c #0163FF",
"H+	c #003AFD",
"I+	c #0010FD",
"J+	c #0B00FD",
"K+	c #1400FE",
"L+	c #040DFD",
"M+	c #0077FF",
"N+	c #00F7C7",
"O+	c #25FF18",
"P+	c #CDF900",
"Q+	c #FFA800",
"R+	c #FF6100",
"S+	c #FF6A00",
"T+	c #FFD101",
"U+	c #55FF00",
"V+	c #00EFCF",
"W+	c #013AFF",
"X+	c #0024FD",
"Y+	c #0166FD",
"Z+	c #019EFD",
"`+	c #01A8FE",
" @	c #018FFE",
".@	c #016EFE",
"+@	c #0155FE",
"@@	c #015AFD",
"#@	c #0188FF",
"$@	c #00CEFF",
"%@	c #00E7F4",
"&@	c #00DDFB",
"*@	c #009CFF",
"=@	c #0036FF",
"-@	c #2A00FE",
";@	c #2B00FE",
">@	c #0E02FD",
",@	c #0044FF",
"'@	c #00D1F0",
")@	c #06FF4E",
"!@	c #9DFF00",
"~@	c #FFC200",
"{@	c #FF7200",
"]@	c #FF9400",
"^@	c #CFF900",
"/@	c #04FF51",
"(@	c #009DFF",
"_@	c #010BFE",
":@	c #014FFE",
"<@	c #018CFD",
"[@	c #0152FE",
"}@	c #0181FF",
"|@	c #01EBF2",
"1@	c #00FF77",
"2@	c #0AFF28",
"3@	c #09FF31",
"4@	c #00C3FF",
"5@	c #0033FF",
"6@	c #1C00FD",
"7@	c #3701FD",
"8@	c #3600FE",
"9@	c #2700FD",
"0@	c #0C0BFF",
"a@	c #0089FF",
"b@	c #00FF80",
"c@	c #8CFF00",
"d@	c #FFB900",
"e@	c #FE7F00",
"f@	c #FFD500",
"g@	c #4AFF01",
"h@	c #00E6DC",
"i@	c #0135FF",
"j@	c #010DFE",
"k@	c #013CFE",
"l@	c #017DFD",
"m@	c #0197FE",
"n@	c #0172FE",
"o@	c #014FFD",
"p@	c #0159FD",
"q@	c #00BFFF",
"r@	c #00FF7C",
"s@	c #4DFF00",
"t@	c #C8FE00",
"u@	c #CEFC00",
"v@	c #00FF58",
"w@	c #00C6F8",
"x@	c #021CFE",
"y@	c #2D00FD",
"z@	c #3D01FE",
"A@	c #4501FE",
"B@	c #5800FD",
"C@	c #3E00FE",
"D@	c #0165FF",
"E@	c #00FF68",
"F@	c #CDFA00",
"G@	c #FF9700",
"H@	c #FFAF00",
"I@	c #9BFF00",
"J@	c #006AFF",
"K@	c #0130FD",
"L@	c #0170FD",
"M@	c #01B2FD",
"N@	c #0193FE",
"O@	c #016BFE",
"P@	c #0148FE",
"Q@	c #00DDF8",
"R@	c #09FF2C",
"S@	c #CAFD00",
"T@	c #FF9900",
"U@	c #FFD100",
"V@	c #91FF00",
"W@	c #00FF69",
"X@	c #0092FF",
"Y@	c #1500FE",
"Z@	c #4600FD",
"`@	c #5100FE",
" #	c #7301FE",
".#	c #9B02FE",
"+#	c #5000FD",
"@#	c #00B9E5",
"##	c #6CFF00",
"$#	c #FFB800",
"%#	c #FF9E00",
"&#	c #C8FA00",
"*#	c #0117FD",
"=#	c #012CFE",
"-#	c #019DFE",
";#	c #0192FE",
">#	c #0169FE",
",#	c #0142FD",
"'#	c #0156FD",
")#	c #00DAF9",
"!#	c #11FF26",
"~#	c #E1F500",
"{#	c #FF8500",
"]#	c #FE5300",
"^#	c #FF6200",
"/#	c #FFC600",
"(#	c #78FF00",
"_#	c #00FFA5",
":#	c #4800FD",
"<#	c #7801FE",
"[#	c #9D01FD",
"}#	c #CC01FE",
"|#	c #A100FA",
"1#	c #0075FF",
"2#	c #41FF1B",
"3#	c #FFCA00",
"4#	c #D7F500",
"5#	c #05FF4B",
"6#	c #009EFF",
"7#	c #011CFD",
"8#	c #012BFD",
"9#	c #0140FE",
"0#	c #013FFD",
"a#	c #00ADFF",
"b#	c #A7FF00",
"c#	c #FFA600",
"d#	c #FE5100",
"e#	c #FE3D00",
"f#	c #FF6500",
"g#	c #FFD700",
"h#	c #41FF07",
"i#	c #00D9E0",
"j#	c #190AFF",
"k#	c #8900FD",
"l#	c #C901FE",
"m#	c #E601FE",
"n#	c #8A00FB",
"o#	c #009BF6",
"p#	c #5AFF08",
"q#	c #FFC100",
"r#	c #CCF900",
"s#	c #00FF57",
"t#	c #0097FF",
"u#	c #012BFE",
"v#	c #019BFD",
"w#	c #0148FD",
"x#	c #012DFD",
"y#	c #015BFF",
"z#	c #00EAE3",
"A#	c #22FF15",
"B#	c #E6F300",
"C#	c #FF8E00",
"D#	c #FF7A00",
"E#	c #E8ED00",
"F#	c #22FF27",
"G#	c #00C0F0",
"H#	c #201CFF",
"I#	c #7300FE",
"J#	c #7100FF",
"K#	c #124CFF",
"L#	c #00FD80",
"M#	c #BCFD00",
"N#	c #FFA300",
"O#	c #FFB500",
"P#	c #00FF86",
"Q#	c #0079FF",
"R#	c #011AFD",
"S#	c #0133FD",
"T#	c #0170FE",
"U#	c #0158FD",
"V#	c #0121FD",
"W#	c #0178FF",
"X#	c #00FFC1",
"Y#	c #35FF07",
"Z#	c #E0F500",
"`#	c #FF9B00",
" $	c #FF5900",
".$	c #FE5500",
"+$	c #FF9200",
"@$	c #DBF500",
"#$	c #31FF1B",
"$$	c #00F29B",
"%$	c #00B5E2",
"&$	c #00C0D8",
"*$	c #00FF6B",
"=$	c #82FF00",
"-$	c #FF9300",
";$	c #FFDF00",
">$	c #4AFF00",
",$	c #00F1CF",
"'$	c #014FFF",
")$	c #017CFD",
"!$	c #01A7FE",
"~$	c #0172FD",
"{$	c #013EFD",
"]$	c #0112FD",
"^$	c #006CFF",
"/$	c #00F1D2",
"($	c #13FF2B",
"_$	c #B0FF00",
":$	c #FF8100",
"<$	c #FE6C00",
"[$	c #FCDD00",
"}$	c #B5FE00",
"|$	c #7AFF00",
"1$	c #86FF00",
"2$	c #D2F700",
"3$	c #FFC500",
"4$	c #00FF53",
"5$	c #00B2FF",
"6$	c #0124FE",
"7$	c #0121FE",
"8$	c #0153FD",
"9$	c #018AFD",
"0$	c #01C4FE",
"a$	c #0191FD",
"b$	c #0131FD",
"c$	c #0006FD",
"d$	c #0300FD",
"e$	c #0040FF",
"f$	c #00C4FD",
"g$	c #61FF00",
"h$	c #DFF400",
"i$	c #FFBA01",
"j$	c #FF8C00",
"k$	c #FFAC00",
"l$	c #FF9500",
"m$	c #C5FF00",
"n$	c #17FF19",
"o$	c #00EAE6",
"p$	c #0150FF",
"q$	c #0118FD",
"r$	c #01AAFE",
"s$	c #0186FD",
"t$	c #015AFE",
"u$	c #0029FD",
"v$	c #0502FE",
"w$	c #0C00FD",
"x$	c #0316FE",
"y$	c #018BFF",
"z$	c #00FABC",
"A$	c #14FF2E",
"B$	c #84FF00",
"C$	c #E7F000",
"D$	c #FFAA00",
"E$	c #FFAE00",
"F$	c #FCE800",
"G$	c #A0FF00",
"H$	c #14FF20",
"I$	c #00FBCB",
"J$	c #0179FF",
"K$	c #001EFD",
"L$	c #0123FE",
"M$	c #0183FE",
"N$	c #01AAFD",
"O$	c #1000FD",
"P$	c #0800FD",
"Q$	c #0047FF",
"R$	c #00BAFF",
"S$	c #00FFA2",
"T$	c #14FF31",
"U$	c #A9FF00",
"V$	c #A4FF00",
"W$	c #76FF00",
"X$	c #31FF0A",
"Y$	c #00FF6A",
"Z$	c #00E3EC",
"`$	c #0174FF",
" %	c #0123FD",
".%	c #0143FE",
"+%	c #0171FD",
"@%	c #01BCFE",
"#%	c #01CFFD",
"$%	c #003FFD",
"%%	c #0018FD",
"&%	c #0600FD",
"*%	c #0110FF",
"=%	c #005CFF",
"-%	c #00B7FF",
";%	c #00EBD3",
">%	c #00FDA1",
",%	c #00FF83",
"'%	c #00FF89",
")%	c #00F9B1",
"!%	c #00E2E8",
"~%	c #0146FF",
"{%	c #001CFD",
"]%	c #011DFD",
"^%	c #01C7FE",
"/%	c #01CCFE",
"(%	c #005BFE",
"_%	c #0034FE",
":%	c #0114FE",
"<%	c #0104FD",
"[%	c #0002FD",
"}%	c #013DFF",
"|%	c #005FFF",
"1%	c #0073FF",
"2%	c #0072FF",
"3%	c #015CFF",
"4%	c #003BFF",
"5%	c #011EFE",
"6%	c #0126FE",
"7%	c #0145FE",
"8%	c #0092FE",
"9%	c #0137FE",
"0%	c #0021FE",
"a%	c #0116FE",
"b%	c #0113FD",
"c%	c #0119FD",
"d%	c #011BFE",
"e%	c #0139FD",
"f%	c #0153FE",
"g%	c #0194FD",
"h%	c #01D4FE",
"i%	c #0179FD",
"j%	c #0161FD",
"k%	c #013FFE",
"l%	c #0138FD",
"m%	c #0136FD",
"n%	c #013DFD",
"o%	c #0149FE",
"p%	c #01C9FE",
"q%	c #01D2FD",
"r%	c #0178FD",
"s%	c #0174FD",
"t%	c #0175FD",
"u%	c #017BFD",
"v%	c #0184FD",
"w%	c #01A2FD",
"x%	c #01BDFE",
"y%	c #01A4FE",
"z%	c #01C5FE",
". + @ # $ # . % & * = - ; > % . , , . ' * ) ! ~ { ] * ^ . / $ $ ",
". + ( _ / : @ ^ < [ } | + 1 2 3 4 5 6 7 8 + } 9 0 a b [ c d _ ( ",
"@ d _ / $ + % > - } e _ f 4 g h i j k l g m n o p q r { s t u / ",
"v _ _ / . w > = = * d x y z A B C D E E F G H I o J K L M N O ( ",
"/ _ ( . P o Q R ] | S T U V W X Y Z `  ...+.@.#.$.* q %.L &.o + ",
". + + % > *.! =.-.c 2 ;.>.,.'.).!.~.{.].^./.(._.:.<.[.}.|.1.2.3.",
". 4.3.> 5.6.q q M t 7.8.>.9.0.a.b.c.d.e.f.g.h.i.j.k.# { %.}.6.< ",
"% l.o ; &.p q 1.Q u m.n.i o.p.q.r.s.t.u.v.w.x.y.z.A.B.' q %.C.[.",
"& < [ = 5.[.] - % D.E.F.G.H.I.J.K.L.M.N.O.P.Q.R.S.T.U.V.Q }.W.6.",
"s X.} N ' Y., Z.f `. +.+++@+#+$+%+&+*+=+-+;+>+,+'+)+!+~+. J W.{+",
"= } e ( ]+7 ^+/+(+h _+:+<+[+}+|+1+2+3+4+5+6+7+8+9+0+a+b+c+[ C.d+",
"= o ( e+y #.f+g+h+i+j+k+l+m+n+o+p+q+r+s+t+u+v+w+x+y+z+A+B+: 9 C.",
"- 4.C+y l D+E+F+Z G+H+I+J+K+L+M+N+O+P+Q+R+S+T+U+V+W+h.X+Y+Z+[ {+",
"* `+ @.@+@@@#@$@%@&@*@=@0+-@;@>@,@'@)@!@~@{@]@^@/@(@_@i.:@<@3.a ",
"& C+E.D+[@}@|@1@2@3@p.4@5@6@7@8@9@0@a@b@c@d@e@f@g@h@i@j@k@l@_ M ",
"% m@n@o@p@q@r@s@t@u@u.v@w@x@y@z@A@B@C@D@E@F@G@H@I@p.J@/.K@L@S [.",
"M@N@O@P@F.Q@R@S@d@T@U@V@W@X@Y@Z@`@ #.#+#@###$#%#&#v.x+*#=#U.-#5.",
"t ;#>#,#'#)#!#~#{#]#^#/#(#_#,@:#<#[#}#|#1#2#3#T@4#5#6#7#8#U.2 X.",
"^ m@8.9#0#a#W@b#c#d#e#f#g#h#i#j#k#l#m#n#o#p#q#%#r#s#t#7#u#l v#X.",
"N C+(+w#x#y#z#A#B#C#t+3+D#E#F#G#H#I#J#K#L#M#N#O#!@P#Q#R#S#T#]+*.",
"5._ m.U#u#V#W#X#Y#Z#`# $.$+$@$#$$$%$&$*$=$N.-$;$>$,$'$R#0#)$!$] ",
"-.& Z+~${$*#]$^$/$($_$/#:$<$-$[$}$|$1$2$3$-$~@_$4$5$6$7$8$9$M@9 ",
"~ 0$M@a$k b$c$d$e$f$a.g$h$i$j$2+%#H@k$`#l$/#m$n$o$p$q$ .l f * ~ ",
"! p 2.r$s$t$u$v$w$x$y$z$A$B$C$-+O#D$E$K.F$G$H$I$J$K$L$@.M$, 0$p ",
"R 0 0 Q N$4 F.<+z+O$P$Q$R$S$T$U+$+U$V$W$X$Y$Z$`$ %7#.%+%f @%6.6.",
"X.6.{+#%b 4.7 h $%%%P$&%*%=%-%;%>%,%'%)%!%6#~%{%]%{$U N@t ^%p 9 ",
"& [.p K K /%> D.~+(%_%:%<%[%x.}%|%1%2%3%4%5%q$6%7%z ;#v &.~ p Q ",
"M@o [.1.|.W.q 5./ 8%#.[@9%0%a%]$b%*#q$c%d%6%e%f%#.g%: = ! p b @%",
", 4.| ) =.h%%.}.~ @%!$ @i%j%B k%l% .m%n%o%,.~$5 ]+P ] ! ~ M X.c ",
"/ u @ & = p%q%|.%.q%9 > $ V.<@E.r%s%t%u%v%a$w%@ s M ~ ~ M - & @ ",
"$ _ ( v ' x%&.1.K |.h%=.^%x%O ( !$y%<.`+# c } z%6.J 6.&.- e 4.d ",
"$ _ _ / , 4.^ - R ~ {+q q #%/%M &.] ] &.-.! ~ p 6.-.5.* ' @ d / "};
