/* XPM */
static const char * appicon16_xpm[] = {
"16 16 226 2",
"  	c None",
". 	c #01B1FD",
"+ 	c #01AEFE",
"@ 	c #01ACFE",
"# 	c #01B2FE",
"$ 	c #01BBFD",
"% 	c #01C0FD",
"& 	c #01B7FE",
"* 	c #01A8FD",
"= 	c #019EFE",
"- 	c #01A2FE",
"; 	c #01B4FE",
"> 	c #01C6FD",
", 	c #01CCFD",
"' 	c #01C1FE",
") 	c #01B3FD",
"! 	c #01ABFD",
"~ 	c #01ABFE",
"{ 	c #01B0FE",
"] 	c #01BAFD",
"^ 	c #01AFFD",
"/ 	c #008AFE",
"( 	c #0063FC",
"_ 	c #014CFB",
": 	c #0147FA",
"< 	c #0064FD",
"[ 	c #0195FD",
"} 	c #01C5FE",
"| 	c #01D3FE",
"1 	c #01C3FD",
"2 	c #01B0FD",
"3 	c #01ADFE",
"4 	c #01B9FE",
"5 	c #01C8FD",
"6 	c #01C1FD",
"7 	c #0198FD",
"8 	c #015CFD",
"9 	c #006EFF",
"0 	c #00AEFC",
"a 	c #0088FF",
"b 	c #0021FF",
"c 	c #0037FD",
"d 	c #0091FD",
"e 	c #01CFFE",
"f 	c #01D4FE",
"g 	c #01BDFD",
"h 	c #01BAFE",
"i 	c #01C7FE",
"j 	c #0180FE",
"k 	c #006DFF",
"l 	c #03FAA6",
"m 	c #70FF01",
"n 	c #64FF1B",
"o 	c #00C8CD",
"p 	c #0305FF",
"q 	c #0133FD",
"r 	c #00A4FD",
"s 	c #00D4FD",
"t 	c #01CDFD",
"u 	c #01BFFE",
"v 	c #01BEFE",
"w 	c #01BCFE",
"x 	c #01A7FD",
"y 	c #006AFE",
"z 	c #007FFF",
"A 	c #2CFF40",
"B 	c #FFA700",
"C 	c #FF6E00",
"D 	c #99FF00",
"E 	c #00A2DE",
"F 	c #0900FF",
"G 	c #0057FD",
"H 	c #01D5FD",
"I 	c #01AFFE",
"J 	c #0194FD",
"K 	c #0179FE",
"L 	c #0064FE",
"M 	c #013DFD",
"N 	c #0029FF",
"O 	c #00E0BA",
"P 	c #B8F300",
"Q 	c #FF4E00",
"R 	c #FF7100",
"S 	c #54FF31",
"T 	c #0043FF",
"U 	c #030EFF",
"V 	c #008EFE",
"W 	c #01CFFD",
"X 	c #008CFE",
"Y 	c #015AFD",
"Z 	c #0073FF",
"` 	c #0099FF",
" .	c #1100FD",
"..	c #0F19FF",
"+.	c #00CDBD",
"@.	c #96FF07",
"#.	c #FF7400",
"$.	c #F0C800",
"%.	c #04E49F",
"&.	c #0003FF",
"*.	c #005AFD",
"=.	c #01ACFD",
"-.	c #0067FD",
";.	c #0067FF",
">.	c #04FCA1",
",.	c #45FF1C",
"'.	c #0EFF87",
").	c #033EFF",
"!.	c #3700FD",
"~.	c #2A00FF",
"{.	c #007CF3",
"].	c #7FFF19",
"^.	c #FF9300",
"/.	c #67FF25",
"(.	c #0056FF",
"_.	c #0130FA",
":.	c #01A5FD",
"<.	c #0151FA",
"[.	c #0097FF",
"}.	c #5EFF13",
"|.	c #FF9C00",
"1.	c #E5D000",
"2.	c #0AF888",
"3.	c #1804FF",
"4.	c #6D01FB",
"5.	c #9B00FF",
"6.	c #10B0B6",
"7.	c #FEC300",
"8.	c #A5EF00",
"9.	c #0097F3",
"0.	c #0222FB",
"a.	c #019CFD",
"b.	c #0154FB",
"c.	c #0063FF",
"d.	c #39FF48",
"e.	c #FF9100",
"f.	c #FF3900",
"g.	c #C9E400",
"h.	c #00B5C9",
"i.	c #7B00FF",
"j.	c #BB00FF",
"k.	c #0EB8B0",
"l.	c #FFC100",
"m.	c #A4F200",
"n.	c #0099F4",
"o.	c #0224FB",
"p.	c #01BBFE",
"q.	c #0075FE",
"r.	c #011DFF",
"s.	c #0096F1",
"t.	c #62FF22",
"u.	c #FF9700",
"v.	c #FF6100",
"w.	c #B3F000",
"x.	c #1EDB89",
"y.	c #13CC9D",
"z.	c #A4F107",
"A.	c #FFAB00",
"B.	c #4FFF33",
"C.	c #0058FF",
"D.	c #013BFA",
"E.	c #01A9FE",
"F.	c #01C9FE",
"G.	c #01A3FD",
"H.	c #004DFD",
"I.	c #0300FF",
"J.	c #006AFA",
"K.	c #27FF62",
"L.	c #CEE900",
"M.	c #FF9B00",
"N.	c #FFB100",
"O.	c #FFB700",
"P.	c #FFAE00",
"Q.	c #9CFF00",
"R.	c #00CBCB",
"S.	c #0018FF",
"T.	c #0066FD",
"U.	c #01CBFD",
"V.	c #01CAFE",
"W.	c #00A2FD",
"X.	c #004CFD",
"Y.	c #0700FE",
"Z.	c #011AFF",
"`.	c #00B9CA",
" +	c #41FF4D",
".+	c #84FE0D",
"++	c #8AFD06",
"@+	c #41FF45",
"#+	c #00C4D0",
"$+	c #0125FF",
"%+	c #013FFD",
"&+	c #019CFE",
"*+	c #01C9FD",
"=+	c #01D1FE",
"-+	c #00B3FD",
";+	c #0070FE",
">+	c #0123FD",
",+	c #0000FF",
"'+	c #0033FF",
")+	c #0075FF",
"!+	c #0048FF",
"~+	c #0141FD",
"{+	c #0193FD",
"]+	c #01CAFD",
"^+	c #01BFFD",
"/+	c #01D1FD",
"(+	c #00D6FD",
"_+	c #01C4FE",
":+	c #019FFE",
"<+	c #006DFE",
"[+	c #0142FB",
"}+	c #022DFA",
"|+	c #022EFA",
"1+	c #0145FB",
"2+	c #006EFD",
"3+	c #01C3FE",
"4+	c #01CCFE",
"5+	c #01C0FE",
"6+	c #01AEFD",
"7+	c #01B8FD",
"8+	c #01D4FD",
"9+	c #01D2FD",
"0+	c #01C4FD",
"a+	c #01B2FD",
"b+	c #01A6FD",
"c+	c #01A4FD",
". + @ # $ % & * = - ; > , ' ) ! ",
"+ ~ { ] % ^ / ( _ : < [ } | 1 2 ",
"3 { 4 5 6 7 8 9 0 a b c d e f g ",
") h i f 6 j k l m n o p q r s t ",
"$ u v w x y z A B C D E F G ] H ",
"% I J K L M N O P Q R S T U V W ",
"4 X Y Z ` T  ...+.@.#.$.%.&.*.g ",
"=.-.;.>.,.'.).!.~.{.].^./.(._.x ",
":.<.[.}.|.1.2.3.4.5.6.7.8.9.0.a.",
"~ b.c.d.e.f.g.h.i.j.k.l.m.n.o.a.",
"p.q.r.s.t.u.v.w.x.y.z.A.B.C.D.E.",
"F.G.H.I.J.K.L.M.N.O.P.Q.R.S.T.w ",
"U.V.W.X.Y.Z.`. +.+++@+#+$+%+&+*+",
"g =+f -+;+>+,+'+)+z !+S.~+{+1 ]+",
"^ ^+/+(+_+:+<+[+}+|+1+2+:+3+4+5+",
"! 6+7+5 8+9+0+a+b+c+^ ^+]+F.^+a+"};
