/* XPM */
static const char *backwards_xpm[] = {
/* width height ncolors chars_per_pixel */
"16 16 3 1",
/* colors */
"A c #000000008080",
"B c #34346767BCBC",
"C c None",
/* pixels */
"CCCCCCCCCCCCCCCC",
"CCCCCCCCCCCCCCCC",
"CCCCCCCCCCCCCCCC",
"CCCCCCCCCBAACCCC",
"CCCCCCCBAAAACCCC",
"CCCCCBAAAAAACCCC",
"CCCBAAAAAAAACCCC",
"CCAAAAAAAAAACCCC",
"CCAAAAAAAAAACCCC",
"CCCBAAAAAAAACCCC",
"CCCCCBAAAAAACCCC",
"CCCCCCCBAAAACCCC",
"CCCCCCCCCBAACCCC",
"CCCCCCCCCCCCCCCC",
"CCCCCCCCCCCCCCCC",
"CCCCCCCCCCCCCCCC"};
