/* XPM */
static const char *info_xpm[] = {
/* width height ncolors chars_per_pixel */
"16 16 6 1",
/* colors */
"A c #000000008080",
"B c #9A9AB6B6E4E4",
"C c #A8A8C0C0E8E8",
"D c None",
"E c #C4C4D5D5F0F0",
"F c #DCDCE6E6F6F6",
/* pixels */
"DDDDDDDDDDDDDDDD",
"DDDDDCAAAACDDDDD",
"DDDDDAEFFEADDDDD",
"DDDDDAFFFEADDDDD",
"DDDDDAEFFEADDDDD",
"DDDDDBAAAABDDDDD",
"DDDDDAFFFEADDDDD",
"DDDDDAFFFEADDDDD",
"DDDDDAFFFEADDDDD",
"DDDDDAFFFEADDDDD",
"DDDDDAFFFEADDDDD",
"DDDDDAFFFEADDDDD",
"DDDDDAFFFEADDDDD",
"DDDDDAFFFEADDDDD",
"DDDDDAAAAAADDDDD",
"DDDDDDDDDDDDDDDD"};
