/* XPM */
static const char *open_xpm[] =
{
/* width height ncolors chars_per_pixel */
"16 15 23 1",
/* colors */
"A c #000000008080",
"B c #212142427979",
"C c #292951519393",
"D c #35356969BFBF",
"E c #3A3A7070CACA",
"F c #55558484D1D1",
"G c #5D5D8989D3D3",
"H c #63638E8ED5D5",
"I c #6E6E9696D8D8",
"J c #77779D9DDBDB",
"K c #8585A7A7DFDF",
"L c #9090AFAFE2E2",
"M c #9A9AEAEA5353",
"N c #9F9FB9B9E5E5",
"O c #A2A2BCBCE6E6",
"P c #A9A9D0D06666",
"Q c #AAAAC1C1E8E8",
"R c #ADADC4C4E9E9",
"S c #B2B2D5D58C8C",
"T c #B3B3C8C8EBEB",
"U c #BEBED0D0EEEE",
"V c None",
"W c #C6C6D6D6F0F0",
/* pixels */
"VVVVVVVVVVVVVVVV",
"VVVVVCCCCVVVVVVV",
"AAAAVVCMMCVVVVVV",
"AIIIAVVCMMCVVVVV",
"AIIIDAAACMMBAAVV",
"AIIIIIIICSMBOAVV",
"AIAAAACCCPMBBBAA",
"AIANQTCMMMMMMBWA",
"AGALNQTCMMMMBTOA",
"AAHKLNQQCMMBTWAG",
"AAIJKLNQQCBTWWAN",
"ADGIJKLNQQTWWRAV",
"AEFGIJKLNQTUWAGV",
"AAAAAAAAAAAAAAVV",
"VVVVVVVVVVVVVVVV",
};
