/* XPM */
static const char *patterns_down_xpm[] = {
/* width height ncolors chars_per_pixel */
"16 16 11 1",
/* colors */
"A c #000000003030",
"B c #393959598F8F",
"C c #4A4A66669494",
"D c #585870709898",
"E c #68687C7C9C9C",
"F c #707070707070",
"G c #74748585A0A0",
"H c #82828F8FA4A4",
"I c #8C8C9696A6A6",
"J c #92929A9AA8A8",
"K c None",
/* pixels */
"FAAAAKKKKKKKKKKK",
"AGGEDAKKKKKKKKKK",
"AAAAAAAAAAAAAAAK",
"AHHGGEEGGGEGECBA",
"AHHHHHHHHHHHGDCA",
"AIIIIIIAAIAAHGDA",
"AIIIIIIAAIAAIHEA",
"AIIIIIIIIIIIIIGA",
"AIIIAAIAAIIIIIHA",
"AIIIAAIAAIIIIIIA",
"AIIIIIIIIIIIIIJA",
"AIIIIIIAAIIIIIIA",
"AIIIIIIAAIIIIIIA",
"AIIIIIIIIIIIIIIA",
"AIIIIIIIIIIIIIIA",
"AAAAAAAAAAAAAAAA"};
