/* XPM */
static const char *redo_xpm[] = {
/* width height ncolors chars_per_pixel */
"16 16 2 1",
/* colors */
"A c #000000008080",
"B c None",
/* pixels */
"BBBBBBBBBBBBBBBB",
"BBBBBBBBBBBBBBBB",
"BBBBBBBBABBBBBBB",
"BBBBBBBBAABBBBBB",
"BBBBBBBBAAABBBBB",
"BBAAAAAAAAAABBBB",
"BBAAAAAAAAAAABBB",
"BBAAAAAAAAAAAABB",
"BBAAAAAAAAAAAABB",
"BBAAAAAAAAAAABBB",
"BBAAAAAAAAAABBBB",
"BBBBBBBBAAABBBBB",
"BBBBBBBBAABBBBBB",
"BBBBBBBBABBBBBBB",
"BBBBBBBBBBBBBBBB",
"BBBBBBBBBBBBBBBB"};
