/* XPM */
static const char *stop_xpm[] =
{
/* width height ncolors chars_per_pixel */
"16 16 120 2",
/* colors */
"AA c #63630B0B0909",
"BA c #666605050000",
"CA c #666617171313",
"DA c #696921212424",
"EA c #71710A0A0B0B",
"FA c #727203030C0C",
"GA c #72720F0F0909",
"HA c #74740A0A0A0A",
"IA c #767610100C0C",
"JA c #797919191D1D",
"KA c #838310101717",
"LA c #85852F2F1818",
"MA c #858530301B1B",
"NA c #868600000000",
"OA c #868638383838",
"PA c #878703030000",
"AB c #878726263131",
"BB c #898902020909",
"CB c #8B8B02020C0C",
"DB c #8C8C00000202",
"EB c #8E8E00000202",
"FB c #8E8E00000404",
"GB c #8F8F1D1D2525",
"HB c #919122222828",
"IB c #919124242121",
"JB c #92922A2A3333",
"KB c #969628282727",
"LB c #979730302727",
"MB c #98982C2C1F1F",
"NB c #999924242C2C",
"OB c #999928282020",
"PB c #9C9C21212626",
"AC c #9D9D35353434",
"BC c #9E9E2C2C3434",
"CC c #9F9F47475353",
"DC c #A0A047474D4D",
"EC c #A2A22B2B2F2F",
"FC c #A2A237374141",
"GC c #A4A412121F1F",
"HC c #A6A623232B2B",
"IC c #A6A627273030",
"JC c #B8B81B1B2424",
"KC c None",
"LC c #C9C910102020",
"MC c #CBCB35353434",
"NC c #CDCD2D2D3939",
"OC c #CECE0A0A1414",
"PC c #D0D007071717",
"AD c #D1D13C3C3E3E",
"BD c #D4D40F0F1818",
"CD c #D7D717172626",
"DD c #D8D80B0B1A1A",
"ED c #DADA0C0C1919",
"FD c #DBDB3A3A4040",
"GD c #DCDC46464747",
"HD c #E0E011112121",
"ID c #E3E32D2D3939",
"JD c #E8E840403333",
"KD c #EAEA06061717",
"LD c #EAEA07071212",
"MD c #EAEA3D3D2F2F",
"ND c #EDED13132121",
"OD c #EEEE5F5F4F4F",
"PD c #EEEE5F5F5151",
"AE c #EFEF57575454",
"BE c #F0F005051414",
"CE c #F0F07E7E7D7D",
"DE c #F1F10B0B1515",
"EE c #F1F132322828",
"FE c #F2F262625A5A",
"GE c #F3F373737272",
"HE c #F5F507071616",
"IE c #F5F53E3E2E2E",
"JE c #F5F555555757",
"KE c #F6F672726666",
"LE c #F7F739392B2B",
"ME c #F7F73B3B3A3A",
"NE c #F7F740403232",
"OE c #F7F75C5C6262",
"PE c #F8F835353939",
"AF c #F9F949494C4C",
"BF c #F9F95A5A5454",
"CF c #F9F95C5C5757",
"DF c #FBFB4A4A4242",
"EF c #FBFB53534646",
"FF c #FDFD31312828",
"GF c #FDFD50504C4C",
"HF c #FDFD53534646",
"IF c #FDFD5F5F5454",
"JF c #FEFE76768080",
"KF c #FFFF22222929",
"LF c #FFFF25252A2A",
"MF c #FFFF27273434",
"NF c #FFFF28282B2B",
"OF c #FFFF2B2B2E2E",
"PF c #FFFF2F2F3131",
"AG c #FFFF30303535",
"BG c #FFFF35354242",
"CG c #FFFF37372D2D",
"DG c #FFFF37373333",
"EG c #FFFF38382E2E",
"FG c #FFFF46464343",
"GG c #FFFF47474949",
"HG c #FFFF48483C3C",
"IG c #FFFF4A4A3D3D",
"JG c #FFFF4B4B4141",
"KG c #FFFF4C4C4F4F",
"LG c #FFFF4F4F4C4C",
"MG c #FFFF53534C4C",
"NG c #FFFF61615E5E",
"OG c #FFFF81818484",
"PG c #FFFF82828A8A",
"AH c #FFFF83837E7E",
"BH c #FFFF83838484",
"CH c #FFFF85858080",
"DH c #FFFF8A8A7E7E",
"EH c #FFFF8C8C8585",
"FH c #FFFF8F8F7C7C",
"GH c #FFFF8F8F7D7D",
"HH c #FFFF92929D9D",
/* pixels */
"KCKCKCKCKCKCKCKCKCKCKCKCKCKCKCKC",
"KCKCKCKCKCKCKCKCKCKCKCKCKCKCKCKC",
"KCKCCCJBHBKBLBMALALAMBOBACOAKCKC",
"KCKCABHHPGBHEHGHFHFHDHCHCECAKCKC",
"KCKCFCJFOEJECFPDODODBFAEGEAAKCKC",
"KCKCBCOGNGGFMGEFHFHFLGKGADHAKCKC",
"KCKCNBAHIFDFJGIGHGHGFGGGMCIBKCKC",
"KCKCECKEDFMDNEIELELEDGMEMCGAKCKC",
"KCKCECKEDFMDNEIELELEDGMEMCGAKCKC",
"KCKCPBFEJDEEEGCGFFFFPFPEGDBAKCKC",
"KCKCHCAFAGKFLFOFNFNFMFBGFDIAKCKC",
"KCKCICIDNDBEHEDELDLDKDHDJCEAKCKC",
"KCKCGBNCCDDDEDBDOCOCPCLCGCJAKCKC",
"KCKCDCKABBDBEBPANANAFBCBFADAKCKC",
"KCKCKCKCKCKCKCKCKCKCKCKCKCKCKCKC",
"KCKCKCKCKCKCKCKCKCKCKCKCKCKCKCKC",
};
