/* XPM */
static const char *undo_xpm[] = {
/* width height ncolors chars_per_pixel */
"16 16 2 1",
/* colors */
"A c #000000008080",
"B c None",
/* pixels */
"BBBBBBBBBBBBBBBB",
"BBBBBBBBBBBBBBBB",
"BBBBBBBABBBBBBBB",
"BBBBBBAABBBBBBBB",
"BBBBBAAABBBBBBBB",
"BBBBAAAAAAAAAABB",
"BBBAAAAAAAAAAABB",
"BBAAAAAAAAAAAABB",
"BBAAAAAAAAAAAABB",
"BBBAAAAAAAAAAABB",
"BBBBAAAAAAAAAABB",
"BBBBBAAABBBBBBBB",
"BBBBBBAABBBBBBBB",
"BBBBBBBABBBBBBBB",
"BBBBBBBBBBBBBBBB",
"BBBBBBBBBBBBBBBB"};
