/* XPM */
static const char *zoomin_curs_xpm[] =
{
/* width height ncolors chars_per_pixel */
"16 16 3 1",
/* colors */
"A c #FFFFFFFFFFFF",
"B c None",
"C c #000000000000",
/* pixels */
"BBBBCCCCBBBBBBBB",
"BBCCAAAACCBBBBBB",
"BCAAAAAAAACBBBBB",
"BCAAACCAAACBBBBB",
"CAAAACCAAAACBBBB",
"CAACCCCCCAACBBBB",
"CAACCCCCCAACBBBB",
"CAAAACCAAAACBBBB",
"BCAAACCAAACBBBBB",
"BCAAAAAAAACCBBBB",
"BBCCAAAACCCACBBB",
"BBBBCCCCBCAAACBB",
"BBBBBBBBBBCAAACB",
"BBBBBBBBBBBCAAAC",
"BBBBBBBBBBBBCAAC",
"BBBBBBBBBBBBBCCB",
};
