/* XPM */
static const char *algo_xpm[] = {
/* width height ncolors chars_per_pixel */
"16 16 6 1",
/* colors */
"A c #000000008080",
"B c #9A9AB6B6E4E4",
"C c None",
"D c #C4C4D5D5F0F0",
"E c #DCDCE6E6F6F6",
"F c #E2E2EAEAF8F8",
/* pixels */
"CCCCCCCCCCCCCCCC",
"CCCAAACCCCCCCCCC",
"CBADEDABCCCCCCCC",
"CABEEEBACCCCCCCC",
"BAEEEEEABCCCCCCC",
"ABEEAEEBACCCCCCC",
"ADEEAEEDACCCCCCC",
"AEEEAEEEACCAAAAA",
"AEEEEEEEACCCAAAC",
"AEEEEEEEACCCCACC",
"AEEEAEEEACCCCCCC",
"AEEEAEEEACCCCCCC",
"AEEEAEEEACCCCCCC",
"AEEFAEEEACCCCCCC",
"AAAAAAAAACCCCCCC",
"CCCCCCCCCCCCCCCC"};
