/* XPM */
static const char* controls_xpm[] = {
/* width height ncolors chars_per_pixel */
"78 130 4 1",
/* colors */
"A c #00000000C8C8",
"B c #8989A9A9DFDF",
"C c #C4C4D5D5F0F0",
"D c #000000000000",
/* pixels */
"DDDDDDDDDDDDDDDDDDDDDDDDDDDDDDDDDDDDDDDDDDDDDDDDDDDDDDDDDDDDDDDDDDDDDDDDDDDDDD",
"DDDDDDDDDDDDDDDDDDDDDDDDDDDDDDDDDDDDDDDDDDDDDDDDDDDDDDDDDDDDDDDDDDDDDDDDDDDDDD",
"DDDDDDDDDDDDDDDDDDDDDDDDDDDDDDDDDDDDDDDDDDDDDDDDDDDDDDDDDDDDDDDDDDDDDDDDDDDDDD",
"DDDDDDDDDDDDDDDDDDDDDDDDDDDDDDDDDDDDDDDDDDDDDDDDDDDDDDDDDDDDDDDDDDDDDDDDDDDDDD",
"DDDDDDDDDDDDDDDDDDDDDDDDDDDDDDDDDDDDDDDDDDDDDDDDDDDDDDDDDDDDDDDDDDDDDDDDDDDDDD",
"DDDDDDDDDDDDDDDDDDDDDDDDDDDDDDDDDDDDDDDDDDDDDDDDDDDDDDDDDDDDDDDDDDDDDDDDDDDDDD",
"DDDDDDDDDDDDDDDDDDDDDDDDDDDDDDDDDDDDDDDDDDDDDDDDDDDDDDDDDDDDDDDDDDDDDDDDDDDDDD",
"DDDDDDDDDDDDDDDDDDDDDDDDDDDDDDDDDDDDDDDDDDDDDDDDDDDDDDDDDDDDDDDDDDDDDDDDDDDDDD",
"DDDDDDDDDDAAAAAAAAAAAAAADDDDDDDDAAAAAAAAAAAAAADDDDDDDDAAAAAAAAAAAAAADDDDDDDDDD",
"DDDDDDDDDABBBBBBBBBBBBBBADDDDDDABBBBBBBBBBBBBBADDDDDDABBBBBBBBBBBBBBADDDDDDDDD",
"DDDDDDDDABBCCCCCCCCCCCCBBADDDDABBCCCCCCCCCCCCBBADDDDABBCCCCCCCCCCCCBBADDDDDDDD",
"DDDDDDDDABCCCCCCCCCCCCCCBADDDDABCCCCCCCCCCCCCCBADDDDABCCCCCCCCCCCCCCBADDDDDDDD",
"DDDDDDDDABCCCCCCCCCCCCCCBADDDDABCCCCCCCCCCCCCCBADDDDABCCCCCCCCCCCCCCBADDDDDDDD",
"DDDDDDDDABCCCCCCAACCCCCCBADDDDABCCCCCCCAAACCCCBADDDDABCCCCAAACCCCCCCBADDDDDDDD",
"DDDDDDDDABCCCCCAAACCCCCCBADDDDABCCCCCCAAABCCCCBADDDDABCCCCBAAACCCCCCBADDDDDDDD",
"DDDDDDDDABCCCCCAAACCCCCCBADDDDABCCCCCAAABCCCCCBADDDDABCCCCCBAAACCCCCBADDDDDDDD",
"DDDDDDDDABCCCCCCAACCCCCCBADDDDABCCCCAAABCCCCCCBADDDDABCCCCCCBAAACCCCBADDDDDDDD",
"DDDDDDDDABCCCCCCAACCCCCCBADDDDABCCCCAAABCCCCCCBADDDDABCCCCCCBAAACCCCBADDDDDDDD",
"DDDDDDDDABCCCCCCAACCCCCCBADDDDABCCCCCAAABCCCCCBADDDDABCCCCCBAAACCCCCBADDDDDDDD",
"DDDDDDDDABCCCCCAAAACCCCCBADDDDABCCCCCCAAABCCCCBADDDDABCCCCBAAACCCCCCBADDDDDDDD",
"DDDDDDDDABCCCCCAAAACCCCCBADDDDABCCCCCCCAAACCCCBADDDDABCCCCAAACCCCCCCBADDDDDDDD",
"DDDDDDDDABCCCCCCCCCCCCCCBADDDDABCCCCCCCCCCCCCCBADDDDABCCCCCCCCCCCCCCBADDDDDDDD",
"DDDDDDDDABCCCCCCCCCCCCCCBADDDDABCCCCCCCCCCCCCCBADDDDABCCCCCCCCCCCCCCBADDDDDDDD",
"DDDDDDDDABBCCCCCCCCCCCCBBADDDDABBCCCCCCCCCCCCBBADDDDABBCCCCCCCCCCCCBBADDDDDDDD",
"DDDDDDDDDABBBBBBBBBBBBBBADDDDDDABBBBBBBBBBBBBBADDDDDDABBBBBBBBBBBBBBADDDDDDDDD",
"DDDDDDDDDDAAAAAAAAAAAAAADDDDDDDDAAAAAAAAAAAAAADDDDDDDDAAAAAAAAAAAAAADDDDDDDDDD",
"DDDDDDDDDDDDDDDDDDDDDDDDDDDDDDDDDDDDDDDDDDDDDDDDDDDDDDDDDDDDDDDDDDDDDDDDDDDDDD",
"DDDDDDDDDDDDDDDDDDDDDDDDDDDDDDDDDDDDDDDDDDDDDDDDDDDDDDDDDDDDDDDDDDDDDDDDDDDDDD",
"DDDDDDDDDDDDDDDDDDDDDDDDDDDDDDDDDDDDDDDDDDDDDDDDDDDDDDDDDDDDDDDDDDDDDDDDDDDDDD",
"DDDDDDDDDDDDDDDDDDDDDDDDDDDDDDDDDDDDDDDDDDDDDDDDDDDDDDDDDDDDDDDDDDDDDDDDDDDDDD",
"DDDDDDDDDDDDDDDDDDDDDDDDDDDDDDDDDDDDDDDDDDDDDDDDDDDDDDDDDDDDDDDDDDDDDDDDDDDDDD",
"DDDDDDDDDDDDDDDDDDDDDDDDDDDDDDDDDDDDDDDDDDDDDDDDDDDDDDDDDDDDDDDDDDDDDDDDDDDDDD",
"DDDDDDDDDDDDDDDDDDDDDDDDDDDDDDDDDDDDDDDDDDDDDDDDDDDDDDDDDDDDDDDDDDDDDDDDDDDDDD",
"DDDDDDDDDDDDDDDDDDDDDDDDDDDDDDDDDDDDDDDDDDDDDDDDDDDDDDDDDDDDDDDDDDDDDDDDDDDDDD",
"DDDDDDDDDDAAAAAAAAAAAAAADDDDDDDDAAAAAAAAAAAAAADDDDDDDDAAAAAAAAAAAAAADDDDDDDDDD",
"DDDDDDDDDABBBBBBBBBBBBBBADDDDDDABBBBBBBBBBBBBBADDDDDDABBBBBBBBBBBBBBADDDDDDDDD",
"DDDDDDDDABBCCCCCCCCCCCCBBADDDDABBCCCCCCCCCCCCBBADDDDABBCCCCCCCCCCCCBBADDDDDDDD",
"DDDDDDDDABCCCCCCCCCCCCCCBADDDDABCCCCCCCCCCCCCCBADDDDABCCCCCCCCCCCCCCBADDDDDDDD",
"DDDDDDDDABCCCCCCCCCCCCCCBADDDDABCCCCCCCCCCCCCCBADDDDABCCCCCCCCCCCCCCBADDDDDDDD",
"DDDDDDDDABCCCCAAAAAACCCCBADDDDABCCCCCCAACCCCCCBADDDDABCCCCCCCCCCCCCCBADDDDDDDD",
"DDDDDDDDABCCCCAAAAAACCCCBADDDDABCCCCCCAACCCCCCBADDDDABCCCCCCCCCCCCCCBADDDDDDDD",
"DDDDDDDDABCCCCAACCCCCCCCBADDDDABCCCCCCAACCCCCCBADDDDABCCCCCCCCCCCCCCBADDDDDDDD",
"DDDDDDDDABCCCCAAAAACCCCCBADDDDABCCCAAAAAAAACCCBADDDDABCCCAAAAAAAACCCBADDDDDDDD",
"DDDDDDDDABCCCCAAAAACCCCCBADDDDABCCCAAAAAAAACCCBADDDDABCCCAAAAAAAACCCBADDDDDDDD",
"DDDDDDDDABCCCCAACCCCCCCCBADDDDABCCCCCCAACCCCCCBADDDDABCCCCCCCCCCCCCCBADDDDDDDD",
"DDDDDDDDABCCCCAACCCCCCCCBADDDDABCCCCCCAACCCCCCBADDDDABCCCCCCCCCCCCCCBADDDDDDDD",
"DDDDDDDDABCCCCAACCCCCCCCBADDDDABCCCCCCAACCCCCCBADDDDABCCCCCCCCCCCCCCBADDDDDDDD",
"DDDDDDDDABCCCCCCCCCCCCCCBADDDDABCCCCCCCCCCCCCCBADDDDABCCCCCCCCCCCCCCBADDDDDDDD",
"DDDDDDDDABCCCCCCCCCCCCCCBADDDDABCCCCCCCCCCCCCCBADDDDABCCCCCCCCCCCCCCBADDDDDDDD",
"DDDDDDDDABBCCCCCCCCCCCCBBADDDDABBCCCCCCCCCCCCBBADDDDABBCCCCCCCCCCCCBBADDDDDDDD",
"DDDDDDDDDABBBBBBBBBBBBBBADDDDDDABBBBBBBBBBBBBBADDDDDDABBBBBBBBBBBBBBADDDDDDDDD",
"DDDDDDDDDDAAAAAAAAAAAAAADDDDDDDDAAAAAAAAAAAAAADDDDDDDDAAAAAAAAAAAAAADDDDDDDDDD",
"DDDDDDDDDDDDDDDDDDDDDDDDDDDDDDDDDDDDDDDDDDDDDDDDDDDDDDDDDDDDDDDDDDDDDDDDDDDDDD",
"DDDDDDDDDDDDDDDDDDDDDDDDDDDDDDDDDDDDDDDDDDDDDDDDDDDDDDDDDDDDDDDDDDDDDDDDDDDDDD",
"DDDDDDDDDDDDDDDDDDDDDDDDDDDDDDDDDDDDDDDDDDDDDDDDDDDDDDDDDDDDDDDDDDDDDDDDDDDDDD",
"DDDDDDDDDDDDDDDDDDDDDDDDDDDDDDDDDDDDDDDDDDDDDDDDDDDDDDDDDDDDDDDDDDDDDDDDDDDDDD",
"DDDDDDDDDDDDDDDDDDDDDDDDDDDDDDDDDDDDDDDDDDDDDDDDDDDDDDDDDDDDDDDDDDDDDDDDDDDDDD",
"DDDDDDDDDDDDDDDDDDDDDDDDDDDDDDDDDDDDDDDDDDDDDDDDDDDDDDDDDDDDDDDDDDDDDDDDDDDDDD",
"DDDDDDDDDDDDDDDDDDDDDDDDDDDDDDDDDDDDDDDDDDDDDDDDDDDDDDDDDDDDDDDDDDDDDDDDDDDDDD",
"DDDDDDDDDDDDDDDDDDDDDDDDDDDDDDDDDDDDDDDDDDDDDDDDDDDDDDDDDDDDDDDDDDDDDDDDDDDDDD",
"DDDDDDDDDDDDDDDDDDDDDDDDDDDDDDDDDDDDDDDDDDDDDDDDDDDDDDDDDDDDDDDDDDDDDDDDDDDDDD",
"DDDDDDDDDDDDDDDDDDDDDDDDDDDDDDDDDDDDDDAADDDDDDDDDDDDDDDDDDDDDDDDDDDDDDDDDDDDDD",
"DDDDDDDDDDAAAAAAAAAAAAAADDDDDDDDDDDDDABBADDDDDDDDDDDDDAAAAAAAAAAAAAADDDDDDDDDD",
"DDDDDDDDDDABBBBBBBBBBBADDDDDDDDDDDDDABBBBADDDDDDDDDDDDDABBBBBBBBBBBADDDDDDDDDD",
"DDDDDDDDDDABCCCCCCCCBADDDDDDDDDDDDDABBCCBBADDDDDDDDDDDDDABCCCCCCCCBADDDDDDDDDD",
"DDDDDDDDDDABCCCCCCCBADDDDDDDDDDDDDABBCCCCBBADDDDDDDDDDDDDABCCCCCCCBADDDDDDDDDD",
"DDDDDDDDDDABCCCCCCCBBADDDDDDDDDDDABBCCCCCCBBADDDDDDDDDDDABBCCCCCCCBADDDDDDDDDD",
"DDDDDDDDDDABCCCCCCCCBBADDDDDDDDDABBCCCCCCCCBBADDDDDDDDDABBCCCCCCCCBADDDDDDDDDD",
"DDDDDDDDDDABCCCCCCCCCBBADDDDDDDABBCCCCCCCCCCBBADDDDDDDABBCCCCCCCCCBADDDDDDDDDD",
"DDDDDDDDDDABCCCCCCCCCCBBADDDDDAAAABCCCCCCCCBAAAADDDDDABBCCCCCCCCCCBADDDDDDDDDD",
"DDDDDDDDDDABCCCCCCCCCBBADDDDDDDDDABCCCCCCCCBADDDDDDDDDABBCCCCCCCCCBADDDDDDDDDD",
"DDDDDDDDDDABCBBCCCCCBBADDDDDDDDDDABCCCCCCCCBADDDDDDDDDDABBCCCCCBBCBADDDDDDDDDD",
"DDDDDDDDDDABBABBCCCBBADDDDDDDDDDDABCCCCCCCCBADDDDDDDDDDDABBCCCBBABBADDDDDDDDDD",
"DDDDDDDDDDABADABBCBBADDDDDDDDDDDDABCCCCCCCCBADDDDDDDDDDDDABBCBBADABADDDDDDDDDD",
"DDDDDDDDDDAADDDABBBADDDDDDDDDDDDDABBBBBBBBBBADDDDDDDDDDDDDABBBADDDAADDDDDDDDDD",
"DDDDDDDDDDADDDDDABADDDDDDDDDDDDDDAAAAAAAAAAAADDDDDDDDDDDDDDABADDDDDADDDDDDDDDD",
"DDDDDDDDDDDDDDDDDADDDDDDDDDDDDDDDDDDDDDDDDDDDDDDDDDDDDDDDDDDADDDDDDDDDDDDDDDDD",
"DDDDDDDDDDDDDDDDDDDDDDDDDDDDDDDDDDDDDDDDDDDDDDDDDDDDDDDDDDDDDDDDDDDDDDDDDDDDDD",
"DDDDDDDDDDDDDDDDDDDDDDDDDDDDDDDDDDDDDDDDDDDDDDDDDDDDDDDDDDDDDDDDDDDDDDDDDDDDDD",
"DDDDDDDDDDDDDDDDDDDDDDDDDDDDDDDDDDDDDDDDDDDDDDDDDDDDDDDDDDDDDDDDDDDDDDDDDDDDDD",
"DDDDDDDDDDDDDDDDDDDDDDDDDDDDDDDDDDDDDDDDDDDDDDDDDDDDDDDDDDDDDDDDDDDDDDDDDDDDDD",
"DDDDDDDDDDDDDDDDDDDDDDDDDDDDDDDDDDDDDDDDDDDDDDDDDDDDDDDDDDDDDDDDDDDDDDDDDDDDDD",
"DDDDDDDDDDDDDDDDDADDDDDDDDDDDDDDAAAAAAAAAAAAAADDDDDDDDDDDDDDADDDDDDDDDDDDDDDDD",
"DDDDDDDDDDDDDDDDAADDDDDDDDDDDDDABBBBBBBBBBBBBBADDDDDDDDDDDDDAADDDDDDDDDDDDDDDD",
"DDDDDDDDDDDDDDDABADDDDDDDDDDDDABBCCCCCCCCCCCCBBADDDDDDDDDDDDABADDDDDDDDDDDDDDD",
"DDDDDDDDDDDDDDABBAAAAAAADDDDDDABCCCCCCCCCCCCCCBADDDDDDAAAAAAABBADDDDDDDDDDDDDD",
"DDDDDDDDDDDDDABBCBBBBBBADDDDDDABCCCCCCCCCCCCCCBADDDDDDABBBBBBCBBADDDDDDDDDDDDD",
"DDDDDDDDDDDDABBCCCCCCCBADDDDDDABCCCAACCCCAACCCBADDDDDDABCCCCCCCBBADDDDDDDDDDDD",
"DDDDDDDDDDDABBCCCCCCCCBADDDDDDABCCCAAACCAAACCCBADDDDDDABCCCCCCCCBBADDDDDDDDDDD",
"DDDDDDDDDDABBCCCCCCCCCBADDDDDDABCCCAAAAAAAACCCBADDDDDDABCCCCCCCCCBBADDDDDDDDDD",
"DDDDDDDDDABBCCCCCCCCCCBADDDDDDABCCCAAAAAAAACCCBADDDDDDABCCCCCCCCCCBBADDDDDDDDD",
"DDDDDDDDDABBCCCCCCCCCCBADDDDDDABCCCAACAACAACCCBADDDDDDABCCCCCCCCCCBBADDDDDDDDD",
"DDDDDDDDDDABBCCCCCCCCCBADDDDDDABCCCAACCCCAACCCBADDDDDDABCCCCCCCCCBBADDDDDDDDDD",
"DDDDDDDDDDDABBCCCCCCCCBADDDDDDABCCCAACCCCAACCCBADDDDDDABCCCCCCCCBBADDDDDDDDDDD",
"DDDDDDDDDDDDABBCCCCCCCBADDDDDDABCCCAACCCCAACCCBADDDDDDABCCCCCCCBBADDDDDDDDDDDD",
"DDDDDDDDDDDDDABBCBBBBBBADDDDDDABCCCCCCCCCCCCCCBADDDDDDABBBBBBCBBADDDDDDDDDDDDD",
"DDDDDDDDDDDDDDABBAAAAAAADDDDDDABCCCCCCCCCCCCCCBADDDDDDAAAAAAABBADDDDDDDDDDDDDD",
"DDDDDDDDDDDDDDDABADDDDDDDDDDDDABBCCCCCCCCCCCCBBADDDDDDDDDDDDABADDDDDDDDDDDDDDD",
"DDDDDDDDDDDDDDDDAADDDDDDDDDDDDDABBBBBBBBBBBBBBADDDDDDDDDDDDDAADDDDDDDDDDDDDDDD",
"DDDDDDDDDDDDDDDDDADDDDDDDDDDDDDDAAAAAAAAAAAAAADDDDDDDDDDDDDDADDDDDDDDDDDDDDDDD",
"DDDDDDDDDDDDDDDDDDDDDDDDDDDDDDDDDDDDDDDDDDDDDDDDDDDDDDDDDDDDDDDDDDDDDDDDDDDDDD",
"DDDDDDDDDDDDDDDDDDDDDDDDDDDDDDDDDDDDDDDDDDDDDDDDDDDDDDDDDDDDDDDDDDDDDDDDDDDDDD",
"DDDDDDDDDDDDDDDDDDDDDDDDDDDDDDDDDDDDDDDDDDDDDDDDDDDDDDDDDDDDDDDDDDDDDDDDDDDDDD",
"DDDDDDDDDDDDDDDDDDDDDDDDDDDDDDDDDDDDDDDDDDDDDDDDDDDDDDDDDDDDDDDDDDDDDDDDDDDDDD",
"DDDDDDDDDDDDDDDDDDDDDDDDDDDDDDDDDDDDDDDDDDDDDDDDDDDDDDDDDDDDDDDDDDDDDDDDDDDDDD",
"DDDDDDDDDDDDDDDDDADDDDDDDDDDDDDDDDDDDDDDDDDDDDDDDDDDDDDDDDDDADDDDDDDDDDDDDDDDD",
"DDDDDDDDDDADDDDDABADDDDDDDDDDDDDDAAAAAAAAAAAADDDDDDDDDDDDDDABADDDDDADDDDDDDDDD",
"DDDDDDDDDDAADDDABBBADDDDDDDDDDDDDABBBBBBBBBBADDDDDDDDDDDDDABBBADDDAADDDDDDDDDD",
"DDDDDDDDDDABADABBCBBADDDDDDDDDDDDABCCCCCCCCBADDDDDDDDDDDDABBCBBADABADDDDDDDDDD",
"DDDDDDDDDDABBABBCCCBBADDDDDDDDDDDABCCCCCCCCBADDDDDDDDDDDABBCCCBBABBADDDDDDDDDD",
"DDDDDDDDDDABCBBCCCCCBBADDDDDDDDDDABCCCCCCCCBADDDDDDDDDDABBCCCCCBBCBADDDDDDDDDD",
"DDDDDDDDDDABCCCCCCCCCBBADDDDDDDDDABCCCCCCCCBADDDDDDDDDABBCCCCCCCCCBADDDDDDDDDD",
"DDDDDDDDDDABCCCCCCCCCCBBADDDDDAAAABCCCCCCCCBAAAADDDDDABBCCCCCCCCCCBADDDDDDDDDD",
"DDDDDDDDDDABCCCCCCCCCBBADDDDDDDABBCCCCCCCCCCBBADDDDDDDABBCCCCCCCCCBADDDDDDDDDD",
"DDDDDDDDDDABCCCCCCCCBBADDDDDDDDDABBCCCCCCCCBBADDDDDDDDDABBCCCCCCCCBADDDDDDDDDD",
"DDDDDDDDDDABCCCCCCCBBADDDDDDDDDDDABBCCCCCCBBADDDDDDDDDDDABBCCCCCCCBADDDDDDDDDD",
"DDDDDDDDDDABCCCCCCCBADDDDDDDDDDDDDABBCCCCBBADDDDDDDDDDDDDABCCCCCCCBADDDDDDDDDD",
"DDDDDDDDDDABCCCCCCCCBADDDDDDDDDDDDDABBCCBBADDDDDDDDDDDDDABCCCCCCCCBADDDDDDDDDD",
"DDDDDDDDDDABBBBBBBBBBBADDDDDDDDDDDDDABBBBADDDDDDDDDDDDDABBBBBBBBBBBADDDDDDDDDD",
"DDDDDDDDDDAAAAAAAAAAAAAADDDDDDDDDDDDDABBADDDDDDDDDDDDDAAAAAAAAAAAAAADDDDDDDDDD",
"DDDDDDDDDDDDDDDDDDDDDDDDDDDDDDDDDDDDDDAADDDDDDDDDDDDDDDDDDDDDDDDDDDDDDDDDDDDDD",
"DDDDDDDDDDDDDDDDDDDDDDDDDDDDDDDDDDDDDDDDDDDDDDDDDDDDDDDDDDDDDDDDDDDDDDDDDDDDDD",
"DDDDDDDDDDDDDDDDDDDDDDDDDDDDDDDDDDDDDDDDDDDDDDDDDDDDDDDDDDDDDDDDDDDDDDDDDDDDDD",
"DDDDDDDDDDDDDDDDDDDDDDDDDDDDDDDDDDDDDDDDDDDDDDDDDDDDDDDDDDDDDDDDDDDDDDDDDDDDDD",
"DDDDDDDDDDDDDDDDDDDDDDDDDDDDDDDDDDDDDDDDDDDDDDDDDDDDDDDDDDDDDDDDDDDDDDDDDDDDDD",
"DDDDDDDDDDDDDDDDDDDDDDDDDDDDDDDDDDDDDDDDDDDDDDDDDDDDDDDDDDDDDDDDDDDDDDDDDDDDDD",
"DDDDDDDDDDDDDDDDDDDDDDDDDDDDDDDDDDDDDDDDDDDDDDDDDDDDDDDDDDDDDDDDDDDDDDDDDDDDDD",
"DDDDDDDDDDDDDDDDDDDDDDDDDDDDDDDDDDDDDDDDDDDDDDDDDDDDDDDDDDDDDDDDDDDDDDDDDDDDDD",
"DDDDDDDDDDDDDDDDDDDDDDDDDDDDDDDDDDDDDDDDDDDDDDDDDDDDDDDDDDDDDDDDDDDDDDDDDDDDDD",
"DDDDDDDDDDDDDDDDDDDDDDDDDDDDDDDDDDDDDDDDDDDDDDDDDDDDDDDDDDDDDDDDDDDDDDDDDDDDDD"};
