/* XPM */
static const char *move_down_xpm[] =
{
/* width height ncolors chars_per_pixel */
"16 16 5 1",
/* colors */
"A c #000000004040",
"B c #121242429090",
"C c #313158589999",
"D c #68688080A8A8",
"E c #8C8C9696A6A6",
/* pixels */
"EEEEEEEEEEEEEEEE",
"EEEEEEEAAEEEEEEE",
"EEEEAEAEBAABEEEE",
"EEEAEAAEDAEAEEEE",
"EEEADEAEDAEABAEE",
"EEEEAEAEEAEAEBAE",
"EEABAEDEDEECEEAE",
"EAEEAEEEEEEEEEAE",
"EAEECEEEEEEEEAEE",
"EEAEEEEEEEEDEAEE",
"EEEAEEEEEEDEBAEE",
"EEEADEEEEDEDAEEE",
"EEEEAEDEEEEAEEEE",
"EEEEEAEEEEDAEEEE",
"EEEEEADEDDCAEEEE",
"EEEEEEEEEEEEEEEE",
};
