/* XPM */
static const char *stopplay_xpm[] = {
/* width height ncolors chars_per_pixel */
"16 16 2 1",
/* colors */
"A c #000000008080",
"B c None",
/* pixels */
"BBBBBBBBBBBBBBBB",
"BBBBBBBBBBBBBBBB",
"BBBBBBBBBBBBBBBB",
"BBBAAAAAAAAAABBB",
"BBBAAAAAAAAAABBB",
"BBBAAAAAAAAAABBB",
"BBBAAAAAAAAAABBB",
"BBBAAAAAAAAAABBB",
"BBBAAAAAAAAAABBB",
"BBBAAAAAAAAAABBB",
"BBBAAAAAAAAAABBB",
"BBBAAAAAAAAAABBB",
"BBBAAAAAAAAAABBB",
"BBBBBBBBBBBBBBBB",
"BBBBBBBBBBBBBBBB",
"BBBBBBBBBBBBBBBB"};
