/* XPM */
static const char *tile_down_xpm[] =
{
/* width height ncolors chars_per_pixel */
"16 16 2 1",
/* colors */
"A c #000000003030",
"B c #8C8C9696A6A6",
/* pixels */
"BBBBBBBBBBBBBBBB",
"BBBBBBBBBBBBBBBB",
"BBBBBBBBBBBBBBBB",
"BBBAAAAAAAAAABBB",
"BBBABBABBABBABBB",
"BBBABBABBABBABBB",
"BBBAAAAAAAAAABBB",
"BBBABBABBABBABBB",
"BBBABBABBABBABBB",
"BBBAAAAAAAAAABBB",
"BBBABBABBABBABBB",
"BBBABBABBABBABBB",
"BBBAAAAAAAAAABBB",
"BBBBBBBBBBBBBBBB",
"BBBBBBBBBBBBBBBB",
"BBBBBBBBBBBBBBBB",
};
