/* XPM */
static const char *forwards_xpm[] = {
/* width height ncolors chars_per_pixel */
"16 16 3 1",
/* colors */
"A c #000000008080",
"B c #34346767BCBC",
"C c None",
/* pixels */
"CCCCCCCCCCCCCCCC",
"CCCCCCCCCCCCCCCC",
"CCCCCCCCCCCCCCCC",
"CCCCAABCCCCCCCCC",
"CCCCAAAABCCCCCCC",
"CCCCAAAAAABCCCCC",
"CCCCAAAAAAAABCCC",
"CCCCAAAAAAAAAACC",
"CCCCAAAAAAAAAACC",
"CCCCAAAAAAAABCCC",
"CCCCAAAAAABCCCCC",
"CCCCAAAABCCCCCCC",
"CCCCAABCCCCCCCCC",
"CCCCCCCCCCCCCCCC",
"CCCCCCCCCCCCCCCC",
"CCCCCCCCCCCCCCCC"};
