/* XPM */
static const char *new_xpm[] =
{
/* width height ncolors chars_per_pixel */
"16 16 11 1",
/* colors */
"A c #000000008080",
"B c #6B6B9494D7D7",
"C c #8989A9A9DFDF",
"D c #9A9AB6B6E4E4",
"E c #A8A8C0C0E8E8",
"F c #B8B8CCCCECEC",
"G c None",
"H c #C4C4D5D5F0F0",
"I c #D2D2DFDFF4F4",
"J c #DCDCE6E6F6F6",
"K c #E2E2EAEAF8F8",
/* pixels */
"GGAAAAAAAAAGGGGG",
"GGAHHFEDCABAGGGG",
"GGAIHHFEDAJDAGGG",
"GGAIIHHFEAJJDAGG",
"GGAIIIHHFAAAAAGG",
"GGAJJJIIHFEDCAGG",
"GGAJJJJJIHFEDAGG",
"GGAJJJJKJIHFEAGG",
"GGAJJJJJKJIHFAGG",
"GGAJJJJJJKJIHAGG",
"GGAJJJJJJJKJIAGG",
"GGAJJJJJJJJJJAGG",
"GGAJJJJJJJJJKAGG",
"GGAJJJJJJJJJJAGG",
"GGAAAAAAAAAAAAGG",
"GGGGGGGGGGGGGGGG",
};
