/* XPM */
static const char *reset_xpm[] =
{
/* width height ncolors chars_per_pixel */
"16 16 2 1",
/* colors */
"A c #000000008080",
"B c None",
/* pixels */
"BBBBBBBBBBBBBBBB",
"BBBBBBBBBBBBBBBB",
"BBBBBBBBBBBBBBBB",
"BBBBBBABBBBBBABB",
"BBBBBAABBBBBAABB",
"BBBBAAABBBBAAABB",
"BBBAAAABBBAAAABB",
"BBAAAAABBAAAAABB",
"BBAAAAABBAAAAABB",
"BBBAAAABBBAAAABB",
"BBBBAAABBBBAAABB",
"BBBBBAABBBBBAABB",
"BBBBBBABBBBBBABB",
"BBBBBBBBBBBBBBBB",
"BBBBBBBBBBBBBBBB",
"BBBBBBBBBBBBBBBB"};
