/* XPM */
static const char *stack_xpm[] =
{
/* width height ncolors chars_per_pixel */
"16 16 3 1",
/* colors */
"A c #000000008080",
"B c None",
"C c #DCDCE6E6F6F6",
/* pixels */
"BBBBBBBBBBBBBBBB",
"BBBBBBBBBBBBBBBB",
"BBBBBBBBBBBBBBBB",
"BBBAAAAAAAABBBBB",
"BBBACCCCCCABBBBB",
"BBBACAAAAAAAABBB",
"BBBACACCCCACABBB",
"BBBACACCCCACABBB",
"BBBACACCCCACABBB",
"BBBACACCCCACABBB",
"BBBAAAAAAAACABBB",
"BBBBBACCCCCCABBB",
"BBBBBAAAAAAAABBB",
"BBBBBBBBBBBBBBBB",
"BBBBBBBBBBBBBBBB",
"BBBBBBBBBBBBBBBB",
};
